{
    "asset" : {
        "copyright" : "Norbert Ligas https://github.com/LigasN",
        "generator" : "Khronos glTF Blender I/O v3.4.50",
        "version" : "2.0"
    },
    "extensionsUsed" : [
        "KHR_materials_specular",
        "KHR_materials_ior"
    ],
    "scene" : 0,
    "scenes" : [
        {
            "name" : "Scene",
            "nodes" : [
                0,
                1,
                2
            ]
        }
    ],
    "nodes" : [
        {
            "mesh" : 0,
            "name" : "Plastic"
        },
        {
            "mesh" : 1,
            "name" : "Pins"
        },
        {
            "mesh" : 2,
            "name" : "Housing"
        }
    ],
    "materials" : [
        {
            "doubleSided" : true,
            "name" : "Plastic",
            "pbrMetallicRoughness" : {
                "baseColorFactor" : [
                    0,
                    0,
                    0,
                    1
                ],
                "roughnessFactor" : 0.6000000238418579
            }
        },
        {
            "doubleSided" : true,
            "name" : "Gold",
            "pbrMetallicRoughness" : {
                "baseColorFactor" : [
                    0.9440000057220459,
                    0.7760000228881836,
                    0.37299999594688416,
                    1
                ],
                "roughnessFactor" : 0.05000000074505806
            }
        },
        {
            "doubleSided" : true,
            "extensions" : {
                "KHR_materials_specular" : {
                    "specularColorFactor" : [
                        0,
                        0,
                        0
                    ]
                },
                "KHR_materials_ior" : {
                    "ior" : 0
                }
            },
            "name" : "PlatedThroughHole",
            "pbrMetallicRoughness" : {
                "baseColorFactor" : [
                    0.7483991980552673,
                    0.7483991980552673,
                    0.7483991980552673,
                    1
                ],
                "roughnessFactor" : 0.11999999731779099
            }
        }
    ],
    "meshes" : [
        {
            "name" : "Plastic",
            "primitives" : [
                {
                    "attributes" : {
                        "POSITION" : 0,
                        "TEXCOORD_0" : 1,
                        "NORMAL" : 2
                    },
                    "indices" : 3,
                    "material" : 0
                }
            ]
        },
        {
            "name" : "Pins",
            "primitives" : [
                {
                    "attributes" : {
                        "POSITION" : 4,
                        "TEXCOORD_0" : 5,
                        "NORMAL" : 6
                    },
                    "indices" : 7,
                    "material" : 1
                }
            ]
        },
        {
            "name" : "Housing",
            "primitives" : [
                {
                    "attributes" : {
                        "POSITION" : 8,
                        "TEXCOORD_0" : 9,
                        "NORMAL" : 10
                    },
                    "indices" : 11,
                    "material" : 2
                }
            ]
        }
    ],
    "accessors" : [
        {
            "bufferView" : 0,
            "componentType" : 5126,
            "count" : 5771,
            "max" : [
                0.004459174815565348,
                0.003893235931172967,
                0.016474347561597824
            ],
            "min" : [
                -0.0023808320984244347,
                0.0014204435283318162,
                0.011982830241322517
            ],
            "type" : "VEC3"
        },
        {
            "bufferView" : 1,
            "componentType" : 5126,
            "count" : 5771,
            "type" : "VEC2"
        },
        {
            "bufferView" : 2,
            "componentType" : 5126,
            "count" : 5771,
            "type" : "VEC3"
        },
        {
            "bufferView" : 3,
            "componentType" : 5123,
            "count" : 6780,
            "type" : "SCALAR"
        },
        {
            "bufferView" : 4,
            "componentType" : 5126,
            "count" : 1940,
            "max" : [
                0.002476568566635251,
                0.0029144221916794777,
                0.016257887706160545
            ],
            "min" : [
                -0.00039822154212743044,
                0.0013174101477488875,
                0.011712257750332355
            ],
            "type" : "VEC3"
        },
        {
            "bufferView" : 5,
            "componentType" : 5126,
            "count" : 1940,
            "type" : "VEC2"
        },
        {
            "bufferView" : 6,
            "componentType" : 5126,
            "count" : 1940,
            "type" : "VEC3"
        },
        {
            "bufferView" : 7,
            "componentType" : 5123,
            "count" : 2283,
            "type" : "SCALAR"
        },
        {
            "bufferView" : 8,
            "componentType" : 5126,
            "count" : 9369,
            "max" : [
                0.005029174964874983,
                0.004125060047954321,
                0.017888681963086128
            ],
            "min" : [
                -0.002950832946226001,
                0.0002870800672098994,
                0.011928711086511612
            ],
            "type" : "VEC3"
        },
        {
            "bufferView" : 9,
            "componentType" : 5126,
            "count" : 9369,
            "type" : "VEC2"
        },
        {
            "bufferView" : 10,
            "componentType" : 5126,
            "count" : 9369,
            "type" : "VEC3"
        },
        {
            "bufferView" : 11,
            "componentType" : 5123,
            "count" : 11391,
            "type" : "SCALAR"
        }
    ],
    "bufferViews" : [
        {
            "buffer" : 0,
            "byteLength" : 69252,
            "byteOffset" : 0,
            "target" : 34962
        },
        {
            "buffer" : 0,
            "byteLength" : 46168,
            "byteOffset" : 69252,
            "target" : 34962
        },
        {
            "buffer" : 0,
            "byteLength" : 69252,
            "byteOffset" : 115420,
            "target" : 34962
        },
        {
            "buffer" : 0,
            "byteLength" : 13560,
            "byteOffset" : 184672,
            "target" : 34963
        },
        {
            "buffer" : 0,
            "byteLength" : 23280,
            "byteOffset" : 198232,
            "target" : 34962
        },
        {
            "buffer" : 0,
            "byteLength" : 15520,
            "byteOffset" : 221512,
            "target" : 34962
        },
        {
            "buffer" : 0,
            "byteLength" : 23280,
            "byteOffset" : 237032,
            "target" : 34962
        },
        {
            "buffer" : 0,
            "byteLength" : 4566,
            "byteOffset" : 260312,
            "target" : 34963
        },
        {
            "buffer" : 0,
            "byteLength" : 112428,
            "byteOffset" : 264880,
            "target" : 34962
        },
        {
            "buffer" : 0,
            "byteLength" : 74952,
            "byteOffset" : 377308,
            "target" : 34962
        },
        {
            "buffer" : 0,
            "byteLength" : 112428,
            "byteOffset" : 452260,
            "target" : 34962
        },
        {
            "buffer" : 0,
            "byteLength" : 22782,
            "byteOffset" : 564688,
            "target" : 34963
        }
    ],
    "buffers" : [
        {
            "byteLength" : 587472,
            "uri" : "MicroUSB.bin"
        }
    ]
}
