{
    "asset" : {
        "copyright" : "Norbert Ligas https://github.com/LigasN",
        "generator" : "Khronos glTF Blender I/O v3.4.50",
        "version" : "2.0"
    },
    "extensionsUsed" : [
        "KHR_materials_specular",
        "KHR_materials_ior"
    ],
    "scene" : 0,
    "scenes" : [
        {
            "name" : "Scene",
            "nodes" : [
                0,
                1,
                2
            ]
        }
    ],
    "nodes" : [
        {
            "mesh" : 0,
            "name" : "Plastic"
        },
        {
            "mesh" : 1,
            "name" : "Pins"
        },
        {
            "mesh" : 2,
            "name" : "Housing"
        }
    ],
    "materials" : [
        {
            "doubleSided" : true,
            "name" : "Plastic",
            "pbrMetallicRoughness" : {
                "baseColorFactor" : [
                    0,
                    0,
                    0,
                    1
                ],
                "roughnessFactor" : 0.6000000238418579
            }
        },
        {
            "doubleSided" : true,
            "name" : "Gold",
            "pbrMetallicRoughness" : {
                "baseColorFactor" : [
                    0.9440000057220459,
                    0.7760000228881836,
                    0.37299999594688416,
                    1
                ],
                "roughnessFactor" : 0.05000000074505806
            }
        },
        {
            "doubleSided" : true,
            "extensions" : {
                "KHR_materials_specular" : {
                    "specularColorFactor" : [
                        0,
                        0,
                        0
                    ]
                },
                "KHR_materials_ior" : {
                    "ior" : 0
                }
            },
            "name" : "PlatedThroughHole",
            "pbrMetallicRoughness" : {
                "baseColorFactor" : [
                    0.7483991980552673,
                    0.7483991980552673,
                    0.7483991980552673,
                    1
                ],
                "roughnessFactor" : 0.11999999731779099
            }
        }
    ],
    "meshes" : [
        {
            "name" : "Plastic",
            "primitives" : [
                {
                    "attributes" : {
                        "POSITION" : 0,
                        "TEXCOORD_0" : 1,
                        "NORMAL" : 2
                    },
                    "indices" : 3,
                    "material" : 0
                }
            ]
        },
        {
            "name" : "Pins",
            "primitives" : [
                {
                    "attributes" : {
                        "POSITION" : 4,
                        "TEXCOORD_0" : 5,
                        "NORMAL" : 6
                    },
                    "indices" : 7,
                    "material" : 1
                }
            ]
        },
        {
            "name" : "Housing",
            "primitives" : [
                {
                    "attributes" : {
                        "POSITION" : 8,
                        "TEXCOORD_0" : 9,
                        "NORMAL" : 10
                    },
                    "indices" : 11,
                    "material" : 2
                }
            ]
        }
    ],
    "accessors" : [
        {
            "bufferView" : 0,
            "componentType" : 5126,
            "count" : 5794,
            "max" : [
                0.004101521801203489,
                0.003893235931172967,
                0.01641966961324215
            ],
            "min" : [
                -0.002189874881878495,
                0.0014204435283318162,
                0.011943059973418713
            ],
            "type" : "VEC3"
        },
        {
            "bufferView" : 1,
            "componentType" : 5126,
            "count" : 5794,
            "type" : "VEC2"
        },
        {
            "bufferView" : 2,
            "componentType" : 5126,
            "count" : 5794,
            "type" : "VEC3"
        },
        {
            "bufferView" : 3,
            "componentType" : 5123,
            "count" : 6780,
            "type" : "SCALAR"
        },
        {
            "bufferView" : 4,
            "componentType" : 5126,
            "count" : 1908,
            "max" : [
                0.0022779328282922506,
                0.0029144221916794777,
                0.016203928738832474
            ],
            "min" : [
                -0.00036628174711950123,
                0.0013174101477488875,
                0.01167338527739048
            ],
            "type" : "VEC3"
        },
        {
            "bufferView" : 5,
            "componentType" : 5126,
            "count" : 1908,
            "type" : "VEC2"
        },
        {
            "bufferView" : 6,
            "componentType" : 5126,
            "count" : 1908,
            "type" : "VEC3"
        },
        {
            "bufferView" : 7,
            "componentType" : 5123,
            "count" : 2283,
            "type" : "SCALAR"
        },
        {
            "bufferView" : 8,
            "componentType" : 5126,
            "count" : 9375,
            "max" : [
                0.0046258047223091125,
                0.004125060047954321,
                0.01782931014895439
            ],
            "min" : [
                -0.0027141582686454058,
                0.0002870800672098994,
                0.011889120563864708
            ],
            "type" : "VEC3"
        },
        {
            "bufferView" : 9,
            "componentType" : 5126,
            "count" : 9375,
            "type" : "VEC2"
        },
        {
            "bufferView" : 10,
            "componentType" : 5126,
            "count" : 9375,
            "type" : "VEC3"
        },
        {
            "bufferView" : 11,
            "componentType" : 5123,
            "count" : 11391,
            "type" : "SCALAR"
        }
    ],
    "bufferViews" : [
        {
            "buffer" : 0,
            "byteLength" : 69528,
            "byteOffset" : 0,
            "target" : 34962
        },
        {
            "buffer" : 0,
            "byteLength" : 46352,
            "byteOffset" : 69528,
            "target" : 34962
        },
        {
            "buffer" : 0,
            "byteLength" : 69528,
            "byteOffset" : 115880,
            "target" : 34962
        },
        {
            "buffer" : 0,
            "byteLength" : 13560,
            "byteOffset" : 185408,
            "target" : 34963
        },
        {
            "buffer" : 0,
            "byteLength" : 22896,
            "byteOffset" : 198968,
            "target" : 34962
        },
        {
            "buffer" : 0,
            "byteLength" : 15264,
            "byteOffset" : 221864,
            "target" : 34962
        },
        {
            "buffer" : 0,
            "byteLength" : 22896,
            "byteOffset" : 237128,
            "target" : 34962
        },
        {
            "buffer" : 0,
            "byteLength" : 4566,
            "byteOffset" : 260024,
            "target" : 34963
        },
        {
            "buffer" : 0,
            "byteLength" : 112500,
            "byteOffset" : 264592,
            "target" : 34962
        },
        {
            "buffer" : 0,
            "byteLength" : 75000,
            "byteOffset" : 377092,
            "target" : 34962
        },
        {
            "buffer" : 0,
            "byteLength" : 112500,
            "byteOffset" : 452092,
            "target" : 34962
        },
        {
            "buffer" : 0,
            "byteLength" : 22782,
            "byteOffset" : 564592,
            "target" : 34963
        }
    ],
    "buffers" : [
        {
            "byteLength" : 587376,
            "uri" : "data:application/octet-stream;base64,"
        }
    ]
}
