{
    "asset" : {
        "copyright" : "Norbert Ligas https://github.com/LigasN",
        "generator" : "Khronos glTF Blender I/O v3.4.50",
        "version" : "2.0"
    },
    "extensionsUsed" : [
        "KHR_materials_specular",
        "KHR_materials_ior"
    ],
    "scene" : 0,
    "scenes" : [
        {
            "name" : "Scene",
            "nodes" : [
                0,
                1,
                2
            ]
        }
    ],
    "nodes" : [
        {
            "mesh" : 0,
            "name" : "Plastic"
        },
        {
            "mesh" : 1,
            "name" : "Pins"
        },
        {
            "mesh" : 2,
            "name" : "Housing"
        }
    ],
    "materials" : [
        {
            "doubleSided" : true,
            "name" : "Plastic",
            "pbrMetallicRoughness" : {
                "baseColorFactor" : [
                    0,
                    0,
                    0,
                    1
                ],
                "roughnessFactor" : 0.6000000238418579
            }
        },
        {
            "doubleSided" : true,
            "name" : "Gold",
            "pbrMetallicRoughness" : {
                "baseColorFactor" : [
                    0.9440000057220459,
                    0.7760000228881836,
                    0.37299999594688416,
                    1
                ],
                "roughnessFactor" : 0.05000000074505806
            }
        },
        {
            "doubleSided" : true,
            "extensions" : {
                "KHR_materials_specular" : {
                    "specularColorFactor" : [
                        0,
                        0,
                        0
                    ]
                },
                "KHR_materials_ior" : {
                    "ior" : 0
                }
            },
            "name" : "PlatedThroughHole",
            "pbrMetallicRoughness" : {
                "baseColorFactor" : [
                    0.7483991980552673,
                    0.7483991980552673,
                    0.7483991980552673,
                    1
                ],
                "roughnessFactor" : 0.11999999731779099
            }
        }
    ],
    "meshes" : [
        {
            "name" : "Plastic",
            "primitives" : [
                {
                    "attributes" : {
                        "POSITION" : 0,
                        "TEXCOORD_0" : 1,
                        "NORMAL" : 2
                    },
                    "indices" : 3,
                    "material" : 0
                }
            ]
        },
        {
            "name" : "Pins",
            "primitives" : [
                {
                    "attributes" : {
                        "POSITION" : 4,
                        "TEXCOORD_0" : 5,
                        "NORMAL" : 6
                    },
                    "indices" : 7,
                    "material" : 1
                }
            ]
        },
        {
            "name" : "Housing",
            "primitives" : [
                {
                    "attributes" : {
                        "POSITION" : 8,
                        "TEXCOORD_0" : 9,
                        "NORMAL" : 10
                    },
                    "indices" : 11,
                    "material" : 2
                }
            ]
        }
    ],
    "accessors" : [
        {
            "bufferView" : 0,
            "componentType" : 5126,
            "count" : 5799,
            "max" : [
                4.1015214920043945,
                3.893235683441162,
                16.419668197631836
            ],
            "min" : [
                -2.1898748874664307,
                1.4204434156417847,
                11.943058967590332
            ],
            "type" : "VEC3"
        },
        {
            "bufferView" : 1,
            "componentType" : 5126,
            "count" : 5799,
            "type" : "VEC2"
        },
        {
            "bufferView" : 2,
            "componentType" : 5126,
            "count" : 5799,
            "type" : "VEC3"
        },
        {
            "bufferView" : 3,
            "componentType" : 5123,
            "count" : 6780,
            "type" : "SCALAR"
        },
        {
            "bufferView" : 4,
            "componentType" : 5126,
            "count" : 1982,
            "max" : [
                2.277932643890381,
                2.914422035217285,
                16.203927993774414
            ],
            "min" : [
                -0.3662817180156708,
                1.3174101114273071,
                11.673384666442871
            ],
            "type" : "VEC3"
        },
        {
            "bufferView" : 5,
            "componentType" : 5126,
            "count" : 1982,
            "type" : "VEC2"
        },
        {
            "bufferView" : 6,
            "componentType" : 5126,
            "count" : 1982,
            "type" : "VEC3"
        },
        {
            "bufferView" : 7,
            "componentType" : 5123,
            "count" : 2283,
            "type" : "SCALAR"
        },
        {
            "bufferView" : 8,
            "componentType" : 5126,
            "count" : 9459,
            "max" : [
                4.625804424285889,
                4.125059604644775,
                17.829309463500977
            ],
            "min" : [
                -2.714158058166504,
                0.28708016872406006,
                11.889120101928711
            ],
            "type" : "VEC3"
        },
        {
            "bufferView" : 9,
            "componentType" : 5126,
            "count" : 9459,
            "type" : "VEC2"
        },
        {
            "bufferView" : 10,
            "componentType" : 5126,
            "count" : 9459,
            "type" : "VEC3"
        },
        {
            "bufferView" : 11,
            "componentType" : 5123,
            "count" : 11391,
            "type" : "SCALAR"
        }
    ],
    "bufferViews" : [
        {
            "buffer" : 0,
            "byteLength" : 69588,
            "byteOffset" : 0,
            "target" : 34962
        },
        {
            "buffer" : 0,
            "byteLength" : 46392,
            "byteOffset" : 69588,
            "target" : 34962
        },
        {
            "buffer" : 0,
            "byteLength" : 69588,
            "byteOffset" : 115980,
            "target" : 34962
        },
        {
            "buffer" : 0,
            "byteLength" : 13560,
            "byteOffset" : 185568,
            "target" : 34963
        },
        {
            "buffer" : 0,
            "byteLength" : 23784,
            "byteOffset" : 199128,
            "target" : 34962
        },
        {
            "buffer" : 0,
            "byteLength" : 15856,
            "byteOffset" : 222912,
            "target" : 34962
        },
        {
            "buffer" : 0,
            "byteLength" : 23784,
            "byteOffset" : 238768,
            "target" : 34962
        },
        {
            "buffer" : 0,
            "byteLength" : 4566,
            "byteOffset" : 262552,
            "target" : 34963
        },
        {
            "buffer" : 0,
            "byteLength" : 113508,
            "byteOffset" : 267120,
            "target" : 34962
        },
        {
            "buffer" : 0,
            "byteLength" : 75672,
            "byteOffset" : 380628,
            "target" : 34962
        },
        {
            "buffer" : 0,
            "byteLength" : 113508,
            "byteOffset" : 456300,
            "target" : 34962
        },
        {
            "buffer" : 0,
            "byteLength" : 22782,
            "byteOffset" : 569808,
            "target" : 34963
        }
    ],
    "buffers" : [
        {
            "byteLength" : 592592,
            "uri" : "data:application/octet-stream;base64,"
        }
    ]
}
