{
    "asset" : {
        "copyright" : "Norbert Ligas https://github.com/LigasN",
        "generator" : "Khronos glTF Blender I/O v3.4.50",
        "version" : "2.0"
    },
    "scene" : 0,
    "scenes" : [
        {
            "name" : "Scene",
            "nodes" : [
                0
            ]
        }
    ],
    "nodes" : [
        {
            "mesh" : 0,
            "name" : "PrototypePCB"
        }
    ],
    "materials" : [
        {
            "doubleSided" : true,
            "name" : "PCB",
            "pbrMetallicRoughness" : {
                "baseColorFactor" : [
                    0,
                    0.029999999329447746,
                    0,
                    1
                ],
                "roughnessFactor" : 0.5
            }
        },
        {
            "doubleSided" : true,
            "name" : "PlatedThroughHole",
            "pbrMetallicRoughness" : {
                "baseColorFactor" : [
                    0.7483991980552673,
                    0.7483991980552673,
                    0.7483991980552673,
                    1
                ],
                "roughnessFactor" : 0.11999999731779099
            }
        }
    ],
    "meshes" : [
        {
            "name" : "PrototypePCB",
            "primitives" : [
                {
                    "attributes" : {
                        "COLOR_0" : 0,
                        "POSITION" : 1,
                        "NORMAL" : 2
                    },
                    "indices" : 3,
                    "material" : 0
                },
                {
                    "attributes" : {
                        "COLOR_0" : 4,
                        "POSITION" : 5,
                        "NORMAL" : 6
                    },
                    "indices" : 7,
                    "material" : 1
                }
            ]
        }
    ],
    "accessors" : [
        {
            "bufferView" : 0,
            "componentType" : 5123,
            "count" : 4504,
            "normalized" : true,
            "type" : "VEC4"
        },
        {
            "bufferView" : 1,
            "componentType" : 5126,
            "count" : 4504,
            "max" : [
                0.009985847398638725,
                0.000750590639654547,
                0.009915491566061974
            ],
            "min" : [
                -0.010014151223003864,
                -0.0007136951317079365,
                -0.007784509100019932
            ],
            "type" : "VEC3"
        },
        {
            "bufferView" : 2,
            "componentType" : 5126,
            "count" : 4504,
            "type" : "VEC3"
        },
        {
            "bufferView" : 3,
            "componentType" : 5123,
            "count" : 8373,
            "type" : "SCALAR"
        },
        {
            "bufferView" : 4,
            "componentType" : 5123,
            "count" : 32750,
            "normalized" : true,
            "type" : "VEC4"
        },
        {
            "bufferView" : 5,
            "componentType" : 5126,
            "count" : 32750,
            "max" : [
                0.009985847398638725,
                0.000750590639654547,
                0.007907811552286148
            ],
            "min" : [
                -0.010014151223003864,
                -0.0007494093733839691,
                -0.007784509100019932
            ],
            "type" : "VEC3"
        },
        {
            "bufferView" : 6,
            "componentType" : 5126,
            "count" : 32750,
            "type" : "VEC3"
        },
        {
            "bufferView" : 7,
            "componentType" : 5123,
            "count" : 37362,
            "type" : "SCALAR"
        }
    ],
    "bufferViews" : [
        {
            "buffer" : 0,
            "byteLength" : 36032,
            "byteOffset" : 0,
            "target" : 34962
        },
        {
            "buffer" : 0,
            "byteLength" : 54048,
            "byteOffset" : 36032,
            "target" : 34962
        },
        {
            "buffer" : 0,
            "byteLength" : 54048,
            "byteOffset" : 90080,
            "target" : 34962
        },
        {
            "buffer" : 0,
            "byteLength" : 16746,
            "byteOffset" : 144128,
            "target" : 34963
        },
        {
            "buffer" : 0,
            "byteLength" : 262000,
            "byteOffset" : 160876,
            "target" : 34962
        },
        {
            "buffer" : 0,
            "byteLength" : 393000,
            "byteOffset" : 422876,
            "target" : 34962
        },
        {
            "buffer" : 0,
            "byteLength" : 393000,
            "byteOffset" : 815876,
            "target" : 34962
        },
        {
            "buffer" : 0,
            "byteLength" : 74724,
            "byteOffset" : 1208876,
            "target" : 34963
        }
    ],
    "buffers" : [
        {
            "byteLength" : 1283600,
            "uri" : "data:application/octet-stream;base64,"
        }
    ]
}
