{
    "asset" : {
        "copyright" : "Norbert Ligas https://github.com/LigasN",
        "generator" : "Khronos glTF Blender I/O v3.4.50",
        "version" : "2.0"
    },
    "extensionsUsed" : [
        "KHR_materials_specular",
        "KHR_materials_ior"
    ],
    "scene" : 0,
    "scenes" : [
        {
            "name" : "Scene",
            "nodes" : [
                0,
                1,
                2,
                3,
                4,
                5
            ]
        }
    ],
    "nodes" : [
        {
            "mesh" : 0,
            "name" : "RedPlastic"
        },
        {
            "mesh" : 1,
            "name" : "Metal"
        },
        {
            "mesh" : 2,
            "name" : "BlackPlastic",
            "translation" : [
                -0.32954394817352295,
                0,
                -0.011142821051180363
            ]
        },
        {
            "mesh" : 3,
            "name" : "Connector",
            "scale" : [
                0.04184279218316078,
                0.04184279218316078,
                0.01182843092828989
            ],
            "translation" : [
                0.20668870210647583,
                0.024316314607858658,
                0
            ]
        },
        {
            "mesh" : 3,
            "name" : "Connector.001",
            "scale" : [
                0.04184279218316078,
                0.04184279218316078,
                0.01182843092828989
            ],
            "translation" : [
                0.20668870210647583,
                0.024316314607858658,
                -0.12031048536300659
            ]
        },
        {
            "mesh" : 3,
            "name" : "Connector.002",
            "scale" : [
                0.04184279218316078,
                0.04184279218316078,
                0.01182843092828989
            ],
            "translation" : [
                0.20668870210647583,
                0.024316314607858658,
                0.12262414395809174
            ]
        }
    ],
    "animations" : [
        {
            "channels" : [
                {
                    "sampler" : 0,
                    "target" : {
                        "node" : 2,
                        "path" : "rotation"
                    }
                }
            ],
            "name" : "Off",
            "samplers" : [
                {
                    "input" : 21,
                    "interpolation" : "STEP",
                    "output" : 22
                }
            ]
        },
        {
            "channels" : [
                {
                    "sampler" : 0,
                    "target" : {
                        "node" : 2,
                        "path" : "rotation"
                    }
                }
            ],
            "name" : "On",
            "samplers" : [
                {
                    "input" : 21,
                    "interpolation" : "STEP",
                    "output" : 23
                }
            ]
        }
    ],
    "materials" : [
        {
            "doubleSided" : true,
            "extensions" : {
                "KHR_materials_specular" : {
                    "specularColorFactor" : [
                        1.0955672472714628,
                        1.0955672472714628,
                        1.0955672472714628
                    ]
                },
                "KHR_materials_ior" : {
                    "ior" : 1.4500000476837158
                }
            },
            "name" : "RedPlastic",
            "pbrMetallicRoughness" : {
                "baseColorFactor" : [
                    0.8000000715255737,
                    0.003669451456516981,
                    0.00899404939264059,
                    1
                ],
                "metallicFactor" : 0,
                "roughnessFactor" : 0.16929133236408234
            }
        },
        {
            "doubleSided" : true,
            "name" : "Metal",
            "pbrMetallicRoughness" : {
                "baseColorFactor" : [
                    0.26676008105278015,
                    0.26676008105278015,
                    0.26676008105278015,
                    1
                ],
                "roughnessFactor" : 0.3073013424873352
            }
        },
        {
            "doubleSided" : true,
            "extensions" : {
                "KHR_materials_specular" : {
                    "specularColorFactor" : [
                        1.0955672472714628,
                        1.0955672472714628,
                        1.0955672472714628
                    ]
                },
                "KHR_materials_ior" : {
                    "ior" : 1.4500000476837158
                }
            },
            "name" : "BlackPlastic",
            "pbrMetallicRoughness" : {
                "baseColorFactor" : [
                    0,
                    0,
                    0,
                    1
                ],
                "metallicFactor" : 0,
                "roughnessFactor" : 0.16929133236408234
            }
        }
    ],
    "meshes" : [
        {
            "name" : "Cube",
            "primitives" : [
                {
                    "attributes" : {
                        "POSITION" : 0,
                        "NORMAL" : 1
                    },
                    "indices" : 2,
                    "material" : 0
                },
                {
                    "attributes" : {
                        "POSITION" : 3,
                        "NORMAL" : 4
                    },
                    "indices" : 5,
                    "material" : 0
                }
            ]
        },
        {
            "name" : "Cube.005",
            "primitives" : [
                {
                    "attributes" : {
                        "POSITION" : 6,
                        "NORMAL" : 7
                    },
                    "indices" : 8,
                    "material" : 1
                },
                {
                    "attributes" : {
                        "POSITION" : 9,
                        "NORMAL" : 10
                    },
                    "indices" : 11,
                    "material" : 1
                }
            ]
        },
        {
            "name" : "Cylinder.007",
            "primitives" : [
                {
                    "attributes" : {
                        "POSITION" : 12,
                        "NORMAL" : 13
                    },
                    "indices" : 14,
                    "material" : 2
                },
                {
                    "attributes" : {
                        "POSITION" : 15,
                        "NORMAL" : 16
                    },
                    "indices" : 17,
                    "material" : 2
                }
            ]
        },
        {
            "name" : "Cube.009",
            "primitives" : [
                {
                    "attributes" : {
                        "POSITION" : 18,
                        "NORMAL" : 19
                    },
                    "indices" : 20,
                    "material" : 1
                }
            ]
        }
    ],
    "accessors" : [
        {
            "bufferView" : 0,
            "componentType" : 5126,
            "count" : 161,
            "max" : [
                0.1677940934896469,
                0.12192516028881073,
                0.19818422198295593
            ],
            "min" : [
                -0.1677940934896469,
                -0.1219252198934555,
                -0.19818422198295593
            ],
            "type" : "VEC3"
        },
        {
            "bufferView" : 1,
            "componentType" : 5126,
            "count" : 161,
            "type" : "VEC3"
        },
        {
            "bufferView" : 2,
            "componentType" : 5123,
            "count" : 465,
            "type" : "SCALAR"
        },
        {
            "bufferView" : 3,
            "componentType" : 5126,
            "count" : 395,
            "max" : [
                0.21076036989688873,
                0.11847199499607086,
                0.19668777287006378
            ],
            "min" : [
                0.16078169643878937,
                -0.12166159600019455,
                -0.198405921459198
            ],
            "type" : "VEC3"
        },
        {
            "bufferView" : 4,
            "componentType" : 5126,
            "count" : 395,
            "type" : "VEC3"
        },
        {
            "bufferView" : 5,
            "componentType" : 5123,
            "count" : 1155,
            "type" : "SCALAR"
        },
        {
            "bufferView" : 6,
            "componentType" : 5126,
            "count" : 1096,
            "max" : [
                -0.011383622884750366,
                0.13247254490852356,
                0.17031922936439514
            ],
            "min" : [
                -0.19929392635822296,
                -0.13734102249145508,
                -0.17747566103935242
            ],
            "type" : "VEC3"
        },
        {
            "bufferView" : 7,
            "componentType" : 5126,
            "count" : 1096,
            "type" : "VEC3"
        },
        {
            "bufferView" : 8,
            "componentType" : 5123,
            "count" : 3240,
            "type" : "SCALAR"
        },
        {
            "bufferView" : 9,
            "componentType" : 5126,
            "count" : 5078,
            "max" : [
                -0.014226723462343216,
                0.11882603168487549,
                0.14195972681045532
            ],
            "min" : [
                -0.42074310779571533,
                -0.32836881279945374,
                -0.14195923507213593
            ],
            "type" : "VEC3"
        },
        {
            "bufferView" : 10,
            "componentType" : 5126,
            "count" : 5078,
            "type" : "VEC3"
        },
        {
            "bufferView" : 11,
            "componentType" : 5123,
            "count" : 9216,
            "type" : "SCALAR"
        },
        {
            "bufferView" : 12,
            "componentType" : 5126,
            "count" : 778,
            "max" : [
                0.056069761514663696,
                0.13597780466079712,
                0.34276971220970154
            ],
            "min" : [
                -0.4198850393295288,
                -0.13649882376194,
                -0.3550971448421478
            ],
            "type" : "VEC3"
        },
        {
            "bufferView" : 13,
            "componentType" : 5126,
            "count" : 778,
            "type" : "VEC3"
        },
        {
            "bufferView" : 14,
            "componentType" : 5123,
            "count" : 1338,
            "type" : "SCALAR"
        },
        {
            "bufferView" : 15,
            "componentType" : 5126,
            "count" : 51,
            "max" : [
                0.056069761514663696,
                0.1359773874282837,
                0.13152697682380676
            ],
            "min" : [
                -0.09045985341072083,
                -0.1364986151456833,
                -0.14198726415634155
            ],
            "type" : "VEC3"
        },
        {
            "bufferView" : 16,
            "componentType" : 5126,
            "count" : 51,
            "type" : "VEC3"
        },
        {
            "bufferView" : 17,
            "componentType" : 5123,
            "count" : 81,
            "type" : "SCALAR"
        },
        {
            "bufferView" : 18,
            "componentType" : 5126,
            "count" : 30,
            "max" : [
                1,
                1,
                1
            ],
            "min" : [
                -1,
                -7.942474365234375,
                -1.0000097751617432
            ],
            "type" : "VEC3"
        },
        {
            "bufferView" : 19,
            "componentType" : 5126,
            "count" : 30,
            "type" : "VEC3"
        },
        {
            "bufferView" : 20,
            "componentType" : 5123,
            "count" : 168,
            "type" : "SCALAR"
        },
        {
            "bufferView" : 21,
            "componentType" : 5126,
            "count" : 1,
            "max" : [
                0
            ],
            "min" : [
                0
            ],
            "type" : "SCALAR"
        },
        {
            "bufferView" : 22,
            "componentType" : 5126,
            "count" : 1,
            "type" : "VEC4"
        },
        {
            "bufferView" : 23,
            "componentType" : 5126,
            "count" : 1,
            "type" : "VEC4"
        }
    ],
    "bufferViews" : [
        {
            "buffer" : 0,
            "byteLength" : 1932,
            "byteOffset" : 0,
            "target" : 34962
        },
        {
            "buffer" : 0,
            "byteLength" : 1932,
            "byteOffset" : 1932,
            "target" : 34962
        },
        {
            "buffer" : 0,
            "byteLength" : 930,
            "byteOffset" : 3864,
            "target" : 34963
        },
        {
            "buffer" : 0,
            "byteLength" : 4740,
            "byteOffset" : 4796,
            "target" : 34962
        },
        {
            "buffer" : 0,
            "byteLength" : 4740,
            "byteOffset" : 9536,
            "target" : 34962
        },
        {
            "buffer" : 0,
            "byteLength" : 2310,
            "byteOffset" : 14276,
            "target" : 34963
        },
        {
            "buffer" : 0,
            "byteLength" : 13152,
            "byteOffset" : 16588,
            "target" : 34962
        },
        {
            "buffer" : 0,
            "byteLength" : 13152,
            "byteOffset" : 29740,
            "target" : 34962
        },
        {
            "buffer" : 0,
            "byteLength" : 6480,
            "byteOffset" : 42892,
            "target" : 34963
        },
        {
            "buffer" : 0,
            "byteLength" : 60936,
            "byteOffset" : 49372,
            "target" : 34962
        },
        {
            "buffer" : 0,
            "byteLength" : 60936,
            "byteOffset" : 110308,
            "target" : 34962
        },
        {
            "buffer" : 0,
            "byteLength" : 18432,
            "byteOffset" : 171244,
            "target" : 34963
        },
        {
            "buffer" : 0,
            "byteLength" : 9336,
            "byteOffset" : 189676,
            "target" : 34962
        },
        {
            "buffer" : 0,
            "byteLength" : 9336,
            "byteOffset" : 199012,
            "target" : 34962
        },
        {
            "buffer" : 0,
            "byteLength" : 2676,
            "byteOffset" : 208348,
            "target" : 34963
        },
        {
            "buffer" : 0,
            "byteLength" : 612,
            "byteOffset" : 211024,
            "target" : 34962
        },
        {
            "buffer" : 0,
            "byteLength" : 612,
            "byteOffset" : 211636,
            "target" : 34962
        },
        {
            "buffer" : 0,
            "byteLength" : 162,
            "byteOffset" : 212248,
            "target" : 34963
        },
        {
            "buffer" : 0,
            "byteLength" : 360,
            "byteOffset" : 212412,
            "target" : 34962
        },
        {
            "buffer" : 0,
            "byteLength" : 360,
            "byteOffset" : 212772,
            "target" : 34962
        },
        {
            "buffer" : 0,
            "byteLength" : 336,
            "byteOffset" : 213132,
            "target" : 34963
        },
        {
            "buffer" : 0,
            "byteLength" : 4,
            "byteOffset" : 213468
        },
        {
            "buffer" : 0,
            "byteLength" : 16,
            "byteOffset" : 213472
        },
        {
            "buffer" : 0,
            "byteLength" : 16,
            "byteOffset" : 213488
        }
    ],
    "buffers" : [
        {
            "byteLength" : 213504,
            "uri" : "data:application/octet-stream;base64,"
        }
    ]
}
