{
    "asset" : {
        "copyright" : "Norbert Ligas https://github.com/LigasN",
        "generator" : "Khronos glTF Blender I/O v3.4.50",
        "version" : "2.0"
    },
    "extensionsUsed" : [
        "KHR_materials_specular",
        "KHR_materials_ior"
    ],
    "scene" : 0,
    "scenes" : [
        {
            "name" : "Scene",
            "nodes" : [
                0,
                1,
                2,
                3,
                4,
                5,
                6,
                7,
                8
            ]
        }
    ],
    "nodes" : [
        {
            "name" : "Top"
        },
        {
            "mesh" : 0,
            "name" : "RedPlastic"
        },
        {
            "name" : "Side",
            "rotation" : [
                0.7070201635360718,
                0.011066827923059464,
                0.011066827923059464,
                0.7070201635360718
            ],
            "scale" : [
                0.21636201441287994,
                0.244937002658844,
                0.21636201441287994
            ],
            "translation" : [
                -0.22565069794654846,
                -0.09662126749753952,
                -0.0007607967709191144
            ]
        },
        {
            "name" : "Back",
            "rotation" : [
                0.4920377731323242,
                0.4920377731323242,
                -0.5078374147415161,
                0.5078373551368713
            ],
            "scale" : [
                0.11851981282234192,
                0.11851981282234192,
                0.11851981282234192
            ],
            "translation" : [
                -0.0036838692612946033,
                -0.09399887174367905,
                0.06273312121629715
            ]
        },
        {
            "mesh" : 1,
            "name" : "Metal"
        },
        {
            "mesh" : 2,
            "name" : "BlackPlastic",
            "rotation" : [
                0,
                0.2138829380273819,
                0,
                0.9768592715263367
            ],
            "translation" : [
                -0.006698312237858772,
                0,
                -0.00025508872931823134
            ]
        },
        {
            "mesh" : 3,
            "name" : "Connector"
        },
        {
            "mesh" : 4,
            "name" : "Connector.001"
        },
        {
            "mesh" : 5,
            "name" : "Connector.002"
        }
    ],
    "animations" : [
        {
            "channels" : [
                {
                    "sampler" : 0,
                    "target" : {
                        "node" : 5,
                        "path" : "rotation"
                    }
                }
            ],
            "name" : "Off",
            "samplers" : [
                {
                    "input" : 34,
                    "interpolation" : "STEP",
                    "output" : 35
                }
            ]
        },
        {
            "channels" : [
                {
                    "sampler" : 0,
                    "target" : {
                        "node" : 5,
                        "path" : "rotation"
                    }
                }
            ],
            "name" : "On",
            "samplers" : [
                {
                    "input" : 34,
                    "interpolation" : "STEP",
                    "output" : 36
                }
            ]
        }
    ],
    "materials" : [
        {
            "doubleSided" : true,
            "extensions" : {
                "KHR_materials_specular" : {
                    "specularColorFactor" : [
                        1.0955672472714628,
                        1.0955672472714628,
                        1.0955672472714628
                    ]
                },
                "KHR_materials_ior" : {
                    "ior" : 1.4500000476837158
                }
            },
            "name" : "RedPlastic",
            "pbrMetallicRoughness" : {
                "baseColorFactor" : [
                    0.8000000715255737,
                    0.003669451456516981,
                    0.00899404939264059,
                    1
                ],
                "metallicFactor" : 0,
                "roughnessFactor" : 0.16929133236408234
            }
        },
        {
            "doubleSided" : true,
            "name" : "Metal",
            "pbrMetallicRoughness" : {
                "baseColorFactor" : [
                    0.26676008105278015,
                    0.26676008105278015,
                    0.26676008105278015,
                    1
                ],
                "roughnessFactor" : 0.3073013424873352
            }
        },
        {
            "doubleSided" : true,
            "extensions" : {
                "KHR_materials_specular" : {
                    "specularColorFactor" : [
                        1.0955672472714628,
                        1.0955672472714628,
                        1.0955672472714628
                    ]
                },
                "KHR_materials_ior" : {
                    "ior" : 1.4500000476837158
                }
            },
            "name" : "BlackPlastic",
            "pbrMetallicRoughness" : {
                "baseColorFactor" : [
                    0,
                    0,
                    0,
                    1
                ],
                "metallicFactor" : 0,
                "roughnessFactor" : 0.16929133236408234
            }
        }
    ],
    "meshes" : [
        {
            "name" : "Cube",
            "primitives" : [
                {
                    "attributes" : {
                        "POSITION" : 0,
                        "TEXCOORD_0" : 1,
                        "NORMAL" : 2
                    },
                    "indices" : 3,
                    "material" : 0
                },
                {
                    "attributes" : {
                        "POSITION" : 4,
                        "TEXCOORD_0" : 5,
                        "NORMAL" : 6
                    },
                    "indices" : 7,
                    "material" : 0
                }
            ]
        },
        {
            "name" : "Cube.005",
            "primitives" : [
                {
                    "attributes" : {
                        "POSITION" : 8,
                        "TEXCOORD_0" : 9,
                        "NORMAL" : 10
                    },
                    "indices" : 11,
                    "material" : 1
                },
                {
                    "attributes" : {
                        "POSITION" : 12,
                        "TEXCOORD_0" : 13,
                        "NORMAL" : 14
                    },
                    "indices" : 15,
                    "material" : 1
                }
            ]
        },
        {
            "name" : "Cylinder.007",
            "primitives" : [
                {
                    "attributes" : {
                        "POSITION" : 16,
                        "TEXCOORD_0" : 17,
                        "NORMAL" : 18
                    },
                    "indices" : 19,
                    "material" : 2
                },
                {
                    "attributes" : {
                        "POSITION" : 20,
                        "TEXCOORD_0" : 21,
                        "NORMAL" : 22
                    },
                    "indices" : 23,
                    "material" : 2
                }
            ]
        },
        {
            "name" : "Cube.001",
            "primitives" : [
                {
                    "attributes" : {
                        "POSITION" : 24,
                        "TEXCOORD_0" : 25,
                        "NORMAL" : 26
                    },
                    "indices" : 27,
                    "material" : 1
                }
            ]
        },
        {
            "name" : "Cube.002",
            "primitives" : [
                {
                    "attributes" : {
                        "POSITION" : 28,
                        "TEXCOORD_0" : 29,
                        "NORMAL" : 30
                    },
                    "indices" : 27,
                    "material" : 1
                }
            ]
        },
        {
            "name" : "Cube.009",
            "primitives" : [
                {
                    "attributes" : {
                        "POSITION" : 31,
                        "TEXCOORD_0" : 32,
                        "NORMAL" : 33
                    },
                    "indices" : 27,
                    "material" : 1
                }
            ]
        }
    ],
    "accessors" : [
        {
            "bufferView" : 0,
            "componentType" : 5126,
            "count" : 161,
            "max" : [
                0.0034235066268593073,
                0.0024876417592167854,
                0.0040435572154819965
            ],
            "min" : [
                -0.0034235066268593073,
                -0.0024876429233700037,
                -0.0040435572154819965
            ],
            "type" : "VEC3"
        },
        {
            "bufferView" : 1,
            "componentType" : 5126,
            "count" : 161,
            "type" : "VEC2"
        },
        {
            "bufferView" : 2,
            "componentType" : 5126,
            "count" : 161,
            "type" : "VEC3"
        },
        {
            "bufferView" : 3,
            "componentType" : 5123,
            "count" : 465,
            "type" : "SCALAR"
        },
        {
            "bufferView" : 4,
            "componentType" : 5126,
            "count" : 403,
            "max" : [
                0.0043001482263207436,
                0.002417186740785837,
                0.004013024736195803
            ],
            "min" : [
                0.003280432429164648,
                -0.0024822643026709557,
                -0.004048080183565617
            ],
            "type" : "VEC3"
        },
        {
            "bufferView" : 5,
            "componentType" : 5126,
            "count" : 403,
            "type" : "VEC2"
        },
        {
            "bufferView" : 6,
            "componentType" : 5126,
            "count" : 403,
            "type" : "VEC3"
        },
        {
            "bufferView" : 7,
            "componentType" : 5123,
            "count" : 1155,
            "type" : "SCALAR"
        },
        {
            "bufferView" : 8,
            "componentType" : 5126,
            "count" : 1096,
            "max" : [
                -0.00023226031044032425,
                0.0027028401382267475,
                0.0034750269260257483
            ],
            "min" : [
                -0.004066198132932186,
                -0.002802171977236867,
                -0.0036210399121046066
            ],
            "type" : "VEC3"
        },
        {
            "bufferView" : 9,
            "componentType" : 5126,
            "count" : 1096,
            "type" : "VEC2"
        },
        {
            "bufferView" : 10,
            "componentType" : 5126,
            "count" : 1096,
            "type" : "VEC3"
        },
        {
            "bufferView" : 11,
            "componentType" : 5123,
            "count" : 3240,
            "type" : "SCALAR"
        },
        {
            "bufferView" : 12,
            "componentType" : 5126,
            "count" : 5080,
            "max" : [
                -0.00029026815900579095,
                0.002424410078674555,
                0.002896407386288047
            ],
            "min" : [
                -0.008584430441260338,
                -0.006699716206640005,
                -0.0028963973745703697
            ],
            "type" : "VEC3"
        },
        {
            "bufferView" : 13,
            "componentType" : 5126,
            "count" : 5080,
            "type" : "VEC2"
        },
        {
            "bufferView" : 14,
            "componentType" : 5126,
            "count" : 5080,
            "type" : "VEC3"
        },
        {
            "bufferView" : 15,
            "componentType" : 5123,
            "count" : 9216,
            "type" : "SCALAR"
        },
        {
            "bufferView" : 16,
            "componentType" : 5126,
            "count" : 778,
            "max" : [
                0.0011186122428625822,
                0.0027743580285459757,
                0.007021279539912939
            ],
            "min" : [
                -0.008592303842306137,
                -0.002784988610073924,
                -0.007217313628643751
            ],
            "type" : "VEC3"
        },
        {
            "bufferView" : 17,
            "componentType" : 5126,
            "count" : 778,
            "type" : "VEC2"
        },
        {
            "bufferView" : 18,
            "componentType" : 5126,
            "count" : 778,
            "type" : "VEC3"
        },
        {
            "bufferView" : 19,
            "componentType" : 5123,
            "count" : 1338,
            "type" : "SCALAR"
        },
        {
            "bufferView" : 20,
            "componentType" : 5126,
            "count" : 51,
            "max" : [
                0.0011186122428625822,
                0.002774349646642804,
                0.002711289096623659
            ],
            "min" : [
                -0.001871034735813737,
                -0.0027849841862916946,
                -0.0028692279011011124
            ],
            "type" : "VEC3"
        },
        {
            "bufferView" : 21,
            "componentType" : 5126,
            "count" : 51,
            "type" : "VEC2"
        },
        {
            "bufferView" : 22,
            "componentType" : 5126,
            "count" : 51,
            "type" : "VEC3"
        },
        {
            "bufferView" : 23,
            "componentType" : 5123,
            "count" : 81,
            "type" : "SCALAR"
        },
        {
            "bufferView" : 24,
            "componentType" : 5126,
            "count" : 76,
            "max" : [
                0.005070793442428112,
                0.0013498456683009863,
                0.00024133581609930843
            ],
            "min" : [
                0.00336335483007133,
                -0.006284518167376518,
                -0.00024133801343850791
            ],
            "type" : "VEC3"
        },
        {
            "bufferView" : 25,
            "componentType" : 5126,
            "count" : 76,
            "type" : "VEC2"
        },
        {
            "bufferView" : 26,
            "componentType" : 5126,
            "count" : 76,
            "type" : "VEC3"
        },
        {
            "bufferView" : 27,
            "componentType" : 5123,
            "count" : 168,
            "type" : "SCALAR"
        },
        {
            "bufferView" : 28,
            "componentType" : 5126,
            "count" : 76,
            "max" : [
                0.005070793442428112,
                0.0013498456683009863,
                -0.0022133616730570793
            ],
            "min" : [
                0.00336335483007133,
                -0.006284518167376518,
                -0.0026960354298353195
            ],
            "type" : "VEC3"
        },
        {
            "bufferView" : 29,
            "componentType" : 5126,
            "count" : 76,
            "type" : "VEC2"
        },
        {
            "bufferView" : 30,
            "componentType" : 5126,
            "count" : 76,
            "type" : "VEC3"
        },
        {
            "bufferView" : 31,
            "componentType" : 5126,
            "count" : 76,
            "max" : [
                0.005070793442428112,
                0.0013498456683009863,
                0.0027432390488684177
            ],
            "min" : [
                0.00336335483007133,
                -0.006284518167376518,
                0.002260565059259534
            ],
            "type" : "VEC3"
        },
        {
            "bufferView" : 32,
            "componentType" : 5126,
            "count" : 76,
            "type" : "VEC2"
        },
        {
            "bufferView" : 33,
            "componentType" : 5126,
            "count" : 76,
            "type" : "VEC3"
        },
        {
            "bufferView" : 34,
            "componentType" : 5126,
            "count" : 1,
            "max" : [
                0
            ],
            "min" : [
                0
            ],
            "type" : "SCALAR"
        },
        {
            "bufferView" : 35,
            "componentType" : 5126,
            "count" : 1,
            "type" : "VEC4"
        },
        {
            "bufferView" : 36,
            "componentType" : 5126,
            "count" : 1,
            "type" : "VEC4"
        }
    ],
    "bufferViews" : [
        {
            "buffer" : 0,
            "byteLength" : 1932,
            "byteOffset" : 0,
            "target" : 34962
        },
        {
            "buffer" : 0,
            "byteLength" : 1288,
            "byteOffset" : 1932,
            "target" : 34962
        },
        {
            "buffer" : 0,
            "byteLength" : 1932,
            "byteOffset" : 3220,
            "target" : 34962
        },
        {
            "buffer" : 0,
            "byteLength" : 930,
            "byteOffset" : 5152,
            "target" : 34963
        },
        {
            "buffer" : 0,
            "byteLength" : 4836,
            "byteOffset" : 6084,
            "target" : 34962
        },
        {
            "buffer" : 0,
            "byteLength" : 3224,
            "byteOffset" : 10920,
            "target" : 34962
        },
        {
            "buffer" : 0,
            "byteLength" : 4836,
            "byteOffset" : 14144,
            "target" : 34962
        },
        {
            "buffer" : 0,
            "byteLength" : 2310,
            "byteOffset" : 18980,
            "target" : 34963
        },
        {
            "buffer" : 0,
            "byteLength" : 13152,
            "byteOffset" : 21292,
            "target" : 34962
        },
        {
            "buffer" : 0,
            "byteLength" : 8768,
            "byteOffset" : 34444,
            "target" : 34962
        },
        {
            "buffer" : 0,
            "byteLength" : 13152,
            "byteOffset" : 43212,
            "target" : 34962
        },
        {
            "buffer" : 0,
            "byteLength" : 6480,
            "byteOffset" : 56364,
            "target" : 34963
        },
        {
            "buffer" : 0,
            "byteLength" : 60960,
            "byteOffset" : 62844,
            "target" : 34962
        },
        {
            "buffer" : 0,
            "byteLength" : 40640,
            "byteOffset" : 123804,
            "target" : 34962
        },
        {
            "buffer" : 0,
            "byteLength" : 60960,
            "byteOffset" : 164444,
            "target" : 34962
        },
        {
            "buffer" : 0,
            "byteLength" : 18432,
            "byteOffset" : 225404,
            "target" : 34963
        },
        {
            "buffer" : 0,
            "byteLength" : 9336,
            "byteOffset" : 243836,
            "target" : 34962
        },
        {
            "buffer" : 0,
            "byteLength" : 6224,
            "byteOffset" : 253172,
            "target" : 34962
        },
        {
            "buffer" : 0,
            "byteLength" : 9336,
            "byteOffset" : 259396,
            "target" : 34962
        },
        {
            "buffer" : 0,
            "byteLength" : 2676,
            "byteOffset" : 268732,
            "target" : 34963
        },
        {
            "buffer" : 0,
            "byteLength" : 612,
            "byteOffset" : 271408,
            "target" : 34962
        },
        {
            "buffer" : 0,
            "byteLength" : 408,
            "byteOffset" : 272020,
            "target" : 34962
        },
        {
            "buffer" : 0,
            "byteLength" : 612,
            "byteOffset" : 272428,
            "target" : 34962
        },
        {
            "buffer" : 0,
            "byteLength" : 162,
            "byteOffset" : 273040,
            "target" : 34963
        },
        {
            "buffer" : 0,
            "byteLength" : 912,
            "byteOffset" : 273204,
            "target" : 34962
        },
        {
            "buffer" : 0,
            "byteLength" : 608,
            "byteOffset" : 274116,
            "target" : 34962
        },
        {
            "buffer" : 0,
            "byteLength" : 912,
            "byteOffset" : 274724,
            "target" : 34962
        },
        {
            "buffer" : 0,
            "byteLength" : 336,
            "byteOffset" : 275636,
            "target" : 34963
        },
        {
            "buffer" : 0,
            "byteLength" : 912,
            "byteOffset" : 275972,
            "target" : 34962
        },
        {
            "buffer" : 0,
            "byteLength" : 608,
            "byteOffset" : 276884,
            "target" : 34962
        },
        {
            "buffer" : 0,
            "byteLength" : 912,
            "byteOffset" : 277492,
            "target" : 34962
        },
        {
            "buffer" : 0,
            "byteLength" : 912,
            "byteOffset" : 278404,
            "target" : 34962
        },
        {
            "buffer" : 0,
            "byteLength" : 608,
            "byteOffset" : 279316,
            "target" : 34962
        },
        {
            "buffer" : 0,
            "byteLength" : 912,
            "byteOffset" : 279924,
            "target" : 34962
        },
        {
            "buffer" : 0,
            "byteLength" : 4,
            "byteOffset" : 280836
        },
        {
            "buffer" : 0,
            "byteLength" : 16,
            "byteOffset" : 280840
        },
        {
            "buffer" : 0,
            "byteLength" : 16,
            "byteOffset" : 280856
        }
    ],
    "buffers" : [
        {
            "byteLength" : 280872,
            "uri" : "data:application/octet-stream;base64,"
        }
    ]
}
