{
    "asset" : {
        "copyright" : "Norbert Ligas https://github.com/LigasN",
        "generator" : "Khronos glTF Blender I/O v3.4.50",
        "version" : "2.0"
    },
    "extensionsUsed" : [
        "KHR_materials_transmission",
        "KHR_materials_specular",
        "KHR_materials_ior"
    ],
    "scene" : 0,
    "scenes" : [
        {
            "name" : "Scene",
            "nodes" : [
                0,
                1,
                2,
                3,
                4,
                5
            ]
        }
    ],
    "nodes" : [
        {
            "mesh" : 0,
            "name" : "PCB"
        },
        {
            "mesh" : 1,
            "name" : "MicroUSB"
        },
        {
            "mesh" : 2,
            "name" : "Pad",
            "translation" : [
                0.001916852779686451,
                -0.0004291267541702837,
                -0.003410893026739359
            ]
        },
        {
            "mesh" : 2,
            "name" : "Pad.001",
            "translation" : [
                0.0022995327599346638,
                -0.0004291267541702837,
                -0.00033851945772767067
            ]
        },
        {
            "mesh" : 2,
            "name" : "Pad.002",
            "translation" : [
                -0.0019263476133346558,
                -0.0004291267541702837,
                0.001979427644982934
            ]
        },
        {
            "mesh" : 2,
            "name" : "Pad.003",
            "translation" : [
                -0.004320831038057804,
                -0.0004291267541702837,
                4.4160384277347475e-05
            ]
        }
    ],
    "materials" : [
        {
            "doubleSided" : true,
            "extensions" : {
                "KHR_materials_transmission" : {
                    "transmissionFactor" : 0.009999999776482582
                }
            },
            "name" : "PCB",
            "pbrMetallicRoughness" : {
                "baseColorFactor" : [
                    0,
                    0.031063510105013847,
                    0,
                    1
                ],
                "roughnessFactor" : 0.5
            }
        },
        {
            "doubleSided" : true,
            "name" : "Plastic",
            "pbrMetallicRoughness" : {
                "baseColorFactor" : [
                    0,
                    0,
                    0,
                    1
                ],
                "roughnessFactor" : 0.6000000238418579
            }
        },
        {
            "doubleSided" : true,
            "name" : "Gold",
            "pbrMetallicRoughness" : {
                "baseColorFactor" : [
                    0.9440000057220459,
                    0.7760000228881836,
                    0.37299999594688416,
                    1
                ],
                "roughnessFactor" : 0.05000000074505806
            }
        },
        {
            "doubleSided" : true,
            "extensions" : {
                "KHR_materials_specular" : {
                    "specularColorFactor" : [
                        0,
                        0,
                        0
                    ]
                },
                "KHR_materials_ior" : {
                    "ior" : 0
                }
            },
            "name" : "PlatedThroughHole",
            "pbrMetallicRoughness" : {
                "baseColorFactor" : [
                    0.7483991980552673,
                    0.7483991980552673,
                    0.7483991980552673,
                    1
                ],
                "roughnessFactor" : 0.11999999731779099
            }
        }
    ],
    "meshes" : [
        {
            "name" : "PCB",
            "primitives" : [
                {
                    "attributes" : {
                        "POSITION" : 0,
                        "TEXCOORD_0" : 1,
                        "NORMAL" : 2
                    },
                    "indices" : 3,
                    "material" : 0
                }
            ]
        },
        {
            "name" : "MicroUSB",
            "primitives" : [
                {
                    "attributes" : {
                        "POSITION" : 4,
                        "TEXCOORD_0" : 5,
                        "NORMAL" : 6
                    },
                    "indices" : 7,
                    "material" : 1
                },
                {
                    "attributes" : {
                        "POSITION" : 8,
                        "TEXCOORD_0" : 9,
                        "NORMAL" : 10
                    },
                    "indices" : 11,
                    "material" : 2
                },
                {
                    "attributes" : {
                        "POSITION" : 12,
                        "TEXCOORD_0" : 13,
                        "NORMAL" : 14
                    },
                    "indices" : 15,
                    "material" : 3
                }
            ]
        },
        {
            "name" : "Pad",
            "primitives" : [
                {
                    "attributes" : {
                        "POSITION" : 16,
                        "TEXCOORD_0" : 17,
                        "NORMAL" : 18
                    },
                    "indices" : 19,
                    "material" : 3
                },
                {
                    "attributes" : {
                        "POSITION" : 20,
                        "TEXCOORD_0" : 21,
                        "NORMAL" : 22
                    },
                    "indices" : 23,
                    "material" : 3
                }
            ]
        }
    ],
    "accessors" : [
        {
            "bufferView" : 0,
            "componentType" : 5126,
            "count" : 193,
            "max" : [
                0.008950000628829002,
                0.0005000000237487257,
                0.00605000089854002
            ],
            "min" : [
                -0.008950000628829002,
                -0.0005000000237487257,
                -0.00605000089854002
            ],
            "type" : "VEC3"
        },
        {
            "bufferView" : 1,
            "componentType" : 5126,
            "count" : 193,
            "type" : "VEC2"
        },
        {
            "bufferView" : 2,
            "componentType" : 5126,
            "count" : 193,
            "type" : "VEC3"
        },
        {
            "bufferView" : 3,
            "componentType" : 5123,
            "count" : 477,
            "type" : "SCALAR"
        },
        {
            "bufferView" : 4,
            "componentType" : 5126,
            "count" : 5949,
            "max" : [
                0.003277343697845936,
                0.0030758248176425695,
                0.002670267829671502
            ],
            "min" : [
                -0.0034657721407711506,
                0.0006030324148014188,
                -0.003727019065991044
            ],
            "type" : "VEC3"
        },
        {
            "bufferView" : 5,
            "componentType" : 5126,
            "count" : 5949,
            "type" : "VEC2"
        },
        {
            "bufferView" : 6,
            "componentType" : 5126,
            "count" : 5949,
            "type" : "VEC3"
        },
        {
            "bufferView" : 7,
            "componentType" : 5123,
            "count" : 6780,
            "type" : "SCALAR"
        },
        {
            "bufferView" : 8,
            "componentType" : 5126,
            "count" : 1975,
            "max" : [
                0.0016745595494285226,
                0.0020970110781490803,
                0.001945617375895381
            ],
            "min" : [
                -0.003043701872229576,
                0.0004999990342184901,
                -0.0034238225780427456
            ],
            "type" : "VEC3"
        },
        {
            "bufferView" : 9,
            "componentType" : 5126,
            "count" : 1975,
            "type" : "VEC2"
        },
        {
            "bufferView" : 10,
            "componentType" : 5126,
            "count" : 1975,
            "type" : "VEC3"
        },
        {
            "bufferView" : 11,
            "componentType" : 5123,
            "count" : 2283,
            "type" : "SCALAR"
        },
        {
            "bufferView" : 12,
            "componentType" : 5126,
            "count" : 9571,
            "max" : [
                0.0035636802203953266,
                0.0033076489344239235,
                0.0028617933858186007
            ],
            "min" : [
                -0.006010453216731548,
                -0.0005303309299051762,
                -0.006042201071977615
            ],
            "type" : "VEC3"
        },
        {
            "bufferView" : 13,
            "componentType" : 5126,
            "count" : 9571,
            "type" : "VEC2"
        },
        {
            "bufferView" : 14,
            "componentType" : 5126,
            "count" : 9571,
            "type" : "VEC3"
        },
        {
            "bufferView" : 15,
            "componentType" : 5123,
            "count" : 11391,
            "type" : "SCALAR"
        },
        {
            "bufferView" : 16,
            "componentType" : 5126,
            "count" : 194,
            "max" : [
                0.0005737021565437317,
                -5.060808325652033e-05,
                0.0005737002938985825
            ],
            "min" : [
                -0.0005737039027735591,
                -9.569973917677999e-05,
                -0.0005737058818340302
            ],
            "type" : "VEC3"
        },
        {
            "bufferView" : 17,
            "componentType" : 5126,
            "count" : 194,
            "type" : "VEC2"
        },
        {
            "bufferView" : 18,
            "componentType" : 5126,
            "count" : 194,
            "type" : "VEC3"
        },
        {
            "bufferView" : 19,
            "componentType" : 5123,
            "count" : 576,
            "type" : "SCALAR"
        },
        {
            "bufferView" : 20,
            "componentType" : 5126,
            "count" : 218,
            "max" : [
                0.0004218809772282839,
                0.0001547830324852839,
                0.00042187911458313465
            ],
            "min" : [
                -0.0004227859899401665,
                -9.569973917677999e-05,
                -0.00042263188515789807
            ],
            "type" : "VEC3"
        },
        {
            "bufferView" : 21,
            "componentType" : 5126,
            "count" : 218,
            "type" : "VEC2"
        },
        {
            "bufferView" : 22,
            "componentType" : 5126,
            "count" : 218,
            "type" : "VEC3"
        },
        {
            "bufferView" : 23,
            "componentType" : 5123,
            "count" : 696,
            "type" : "SCALAR"
        }
    ],
    "bufferViews" : [
        {
            "buffer" : 0,
            "byteLength" : 2316,
            "byteOffset" : 0,
            "target" : 34962
        },
        {
            "buffer" : 0,
            "byteLength" : 1544,
            "byteOffset" : 2316,
            "target" : 34962
        },
        {
            "buffer" : 0,
            "byteLength" : 2316,
            "byteOffset" : 3860,
            "target" : 34962
        },
        {
            "buffer" : 0,
            "byteLength" : 954,
            "byteOffset" : 6176,
            "target" : 34963
        },
        {
            "buffer" : 0,
            "byteLength" : 71388,
            "byteOffset" : 7132,
            "target" : 34962
        },
        {
            "buffer" : 0,
            "byteLength" : 47592,
            "byteOffset" : 78520,
            "target" : 34962
        },
        {
            "buffer" : 0,
            "byteLength" : 71388,
            "byteOffset" : 126112,
            "target" : 34962
        },
        {
            "buffer" : 0,
            "byteLength" : 13560,
            "byteOffset" : 197500,
            "target" : 34963
        },
        {
            "buffer" : 0,
            "byteLength" : 23700,
            "byteOffset" : 211060,
            "target" : 34962
        },
        {
            "buffer" : 0,
            "byteLength" : 15800,
            "byteOffset" : 234760,
            "target" : 34962
        },
        {
            "buffer" : 0,
            "byteLength" : 23700,
            "byteOffset" : 250560,
            "target" : 34962
        },
        {
            "buffer" : 0,
            "byteLength" : 4566,
            "byteOffset" : 274260,
            "target" : 34963
        },
        {
            "buffer" : 0,
            "byteLength" : 114852,
            "byteOffset" : 278828,
            "target" : 34962
        },
        {
            "buffer" : 0,
            "byteLength" : 76568,
            "byteOffset" : 393680,
            "target" : 34962
        },
        {
            "buffer" : 0,
            "byteLength" : 114852,
            "byteOffset" : 470248,
            "target" : 34962
        },
        {
            "buffer" : 0,
            "byteLength" : 22782,
            "byteOffset" : 585100,
            "target" : 34963
        },
        {
            "buffer" : 0,
            "byteLength" : 2328,
            "byteOffset" : 607884,
            "target" : 34962
        },
        {
            "buffer" : 0,
            "byteLength" : 1552,
            "byteOffset" : 610212,
            "target" : 34962
        },
        {
            "buffer" : 0,
            "byteLength" : 2328,
            "byteOffset" : 611764,
            "target" : 34962
        },
        {
            "buffer" : 0,
            "byteLength" : 1152,
            "byteOffset" : 614092,
            "target" : 34963
        },
        {
            "buffer" : 0,
            "byteLength" : 2616,
            "byteOffset" : 615244,
            "target" : 34962
        },
        {
            "buffer" : 0,
            "byteLength" : 1744,
            "byteOffset" : 617860,
            "target" : 34962
        },
        {
            "buffer" : 0,
            "byteLength" : 2616,
            "byteOffset" : 619604,
            "target" : 34962
        },
        {
            "buffer" : 0,
            "byteLength" : 1392,
            "byteOffset" : 622220,
            "target" : 34963
        }
    ],
    "buffers" : [
        {
            "byteLength" : 623612,
            "uri" : "USBModule.bin"
        }
    ]
}
