solid 3M 9612xx-5604-AR - 3M 9612xx-5604-AR Pin1-1
   facet normal 9.986320e-001 5.228807e-002 4.254673e-033
      outer loop
         vertex 5.046260e-001 2.356457e-001 6.261951e-002
         vertex 5.046260e-001 2.356457e-001 3.761951e-002
         vertex 5.038989e-001 2.448839e-001 3.761951e-002
      endloop
   endfacet
   facet normal 9.945169e-001 1.045761e-001 3.589984e-033
      outer loop
         vertex 5.046260e-001 2.356457e-001 6.261951e-002
         vertex 5.038989e-001 2.448839e-001 3.761951e-002
         vertex 5.038989e-001 2.448839e-001 6.261951e-002
      endloop
   endfacet
   facet normal 9.781576e-001 2.078648e-001 2.236597e-033
      outer loop
         vertex 5.038989e-001 2.448839e-001 6.261951e-002
         vertex 5.038989e-001 2.448839e-001 3.761951e-002
         vertex 5.017356e-001 2.538947e-001 3.761951e-002
      endloop
   endfacet
   facet normal 9.659134e-001 2.588654e-001 1.547898e-033
      outer loop
         vertex 5.038989e-001 2.448839e-001 6.261951e-002
         vertex 5.017356e-001 2.538947e-001 3.761951e-002
         vertex 5.017356e-001 2.538947e-001 6.261951e-002
      endloop
   endfacet
   facet normal 9.335976e-001 3.583232e-001 1.634475e-034
      outer loop
         vertex 5.017356e-001 2.538947e-001 6.261951e-002
         vertex 5.017356e-001 2.538947e-001 3.761951e-002
         vertex 4.981894e-001 2.624561e-001 3.761951e-002
      endloop
   endfacet
   facet normal 9.135259e-001 4.067805e-001 -5.323037e-034
      outer loop
         vertex 5.017356e-001 2.538947e-001 6.261951e-002
         vertex 4.981894e-001 2.624561e-001 3.761951e-002
         vertex 4.981894e-001 2.624561e-001 6.261951e-002
      endloop
   endfacet
   facet normal 8.660494e-001 4.999584e-001 -1.913725e-033
      outer loop
         vertex 4.981894e-001 2.624561e-001 6.261951e-002
         vertex 4.981894e-001 2.624561e-001 3.761951e-002
         vertex 4.933475e-001 2.703574e-001 3.761951e-002
      endloop
   endfacet
   facet normal 8.386444e-001 5.446792e-001 -2.599397e-033
      outer loop
         vertex 4.981894e-001 2.624561e-001 6.261951e-002
         vertex 4.933475e-001 2.703574e-001 3.761951e-002
         vertex 4.933475e-001 2.703574e-001 6.261951e-002
      endloop
   endfacet
   facet normal 7.771761e-001 6.292831e-001 -3.943778e-033
      outer loop
         vertex 4.933475e-001 2.703574e-001 6.261951e-002
         vertex 4.933475e-001 2.703574e-001 3.761951e-002
         vertex 4.873291e-001 2.774039e-001 3.761951e-002
      endloop
   endfacet
   facet normal 7.431127e-001 6.691663e-001 -4.602486e-033
      outer loop
         vertex 4.933475e-001 2.703574e-001 6.261951e-002
         vertex 4.873291e-001 2.774039e-001 3.761951e-002
         vertex 4.873291e-001 2.774039e-001 6.261951e-002
      endloop
   endfacet
   facet normal 6.691663e-001 7.431127e-001 -5.876719e-033
      outer loop
         vertex 4.873291e-001 2.774039e-001 6.261951e-002
         vertex 4.873291e-001 2.774039e-001 3.761951e-002
         vertex 4.802826e-001 2.834223e-001 3.761951e-002
      endloop
   endfacet
   facet normal 6.292831e-001 7.771761e-001 -6.492245e-033
      outer loop
         vertex 4.873291e-001 2.774039e-001 6.261951e-002
         vertex 4.802826e-001 2.834223e-001 3.761951e-002
         vertex 4.802826e-001 2.834223e-001 6.261951e-002
      endloop
   endfacet
   facet normal 5.446792e-001 8.386444e-001 -7.664958e-033
      outer loop
         vertex 4.802826e-001 2.834223e-001 6.261951e-002
         vertex 4.802826e-001 2.834223e-001 3.761951e-002
         vertex 4.723813e-001 2.882642e-001 3.761951e-002
      endloop
   endfacet
   facet normal 4.999584e-001 8.660494e-001 -8.222145e-033
      outer loop
         vertex 4.802826e-001 2.834223e-001 6.261951e-002
         vertex 4.723813e-001 2.882642e-001 3.761951e-002
         vertex 4.723813e-001 2.882642e-001 6.261951e-002
      endloop
   endfacet
   facet normal 4.067805e-001 9.135259e-001 -9.264459e-033
      outer loop
         vertex 4.723813e-001 2.882642e-001 6.261951e-002
         vertex 4.723813e-001 2.882642e-001 3.761951e-002
         vertex 4.638199e-001 2.918104e-001 3.761951e-002
      endloop
   endfacet
   facet normal 3.583232e-001 9.335976e-001 -9.749587e-033
      outer loop
         vertex 4.723813e-001 2.882642e-001 6.261951e-002
         vertex 4.638199e-001 2.918104e-001 3.761951e-002
         vertex 4.638199e-001 2.918104e-001 6.261951e-002
      endloop
   endfacet
   facet normal 2.588654e-001 9.659134e-001 -1.063584e-032
      outer loop
         vertex 4.638199e-001 2.918104e-001 6.261951e-002
         vertex 4.638199e-001 2.918104e-001 3.761951e-002
         vertex 4.548092e-001 2.939737e-001 3.761951e-002
      endloop
   endfacet
   facet normal 2.078648e-001 9.781576e-001 -1.103696e-032
      outer loop
         vertex 4.638199e-001 2.918104e-001 6.261951e-002
         vertex 4.548092e-001 2.939737e-001 3.761951e-002
         vertex 4.548092e-001 2.939737e-001 6.261951e-002
      endloop
   endfacet
   facet normal 1.045761e-001 9.945169e-001 -1.174533e-032
      outer loop
         vertex 4.548092e-001 2.939737e-001 6.261951e-002
         vertex 4.548092e-001 2.939737e-001 3.761951e-002
         vertex 4.455709e-001 2.947008e-001 3.761951e-002
      endloop
   endfacet
   facet normal 5.228807e-002 9.986320e-001 -1.205257e-032
      outer loop
         vertex 4.548092e-001 2.939737e-001 6.261951e-002
         vertex 4.455709e-001 2.947008e-001 3.761951e-002
         vertex 4.455709e-001 2.947008e-001 6.261951e-002
      endloop
   endfacet
   facet normal -1.261097e-016 1.000000e+000 -1.232595e-032
      outer loop
         vertex 1.023622e-002 2.947008e-001 6.261951e-002
         vertex 4.455709e-001 2.947008e-001 6.261951e-002
         vertex 1.023622e-002 2.947008e-001 3.761951e-002
      endloop
   endfacet
   facet normal -1.261097e-016 1.000000e+000 -1.232595e-032
      outer loop
         vertex 1.023622e-002 2.947008e-001 3.761951e-002
         vertex 4.455709e-001 2.947008e-001 6.261951e-002
         vertex 4.455709e-001 2.947008e-001 3.761951e-002
      endloop
   endfacet
   facet normal -1.000000e+000 -2.449294e-016 -4.905884e-033
      outer loop
         vertex 2.362218e-003 2.868268e-001 4.549353e-002
         vertex 2.362218e-003 2.775748e-001 4.549353e-002
         vertex 2.362218e-003 2.868268e-001 5.474549e-002
      endloop
   endfacet
   facet normal -1.000000e+000 -2.449294e-016 -4.905884e-033
      outer loop
         vertex 2.362218e-003 2.868268e-001 5.474549e-002
         vertex 2.362218e-003 2.775748e-001 4.549353e-002
         vertex 2.362218e-003 2.775748e-001 5.474549e-002
      endloop
   endfacet
   facet normal 2.449294e-016 -1.000000e+000 1.232595e-032
      outer loop
         vertex 1.023622e-002 2.697008e-001 3.761951e-002
         vertex 4.455709e-001 2.697008e-001 3.761951e-002
         vertex 1.023622e-002 2.697008e-001 6.261951e-002
      endloop
   endfacet
   facet normal 2.449294e-016 -1.000000e+000 1.232595e-032
      outer loop
         vertex 1.023622e-002 2.697008e-001 6.261951e-002
         vertex 4.455709e-001 2.697008e-001 3.761951e-002
         vertex 4.455709e-001 2.697008e-001 6.261951e-002
      endloop
   endfacet
   facet normal -5.807914e-002 -9.983120e-001 1.202022e-032
      outer loop
         vertex 4.455709e-001 2.697008e-001 6.261951e-002
         vertex 4.455709e-001 2.697008e-001 3.761951e-002
         vertex 4.514845e-001 2.691834e-001 3.761951e-002
      endloop
   endfacet
   facet normal -1.161583e-001 -9.932307e-001 1.167265e-032
      outer loop
         vertex 4.455709e-001 2.697008e-001 6.261951e-002
         vertex 4.514845e-001 2.691834e-001 3.761951e-002
         vertex 4.514845e-001 2.691834e-001 6.261951e-002
      endloop
   endfacet
   facet normal -2.305519e-001 -9.730600e-001 1.086283e-032
      outer loop
         vertex 4.514845e-001 2.691834e-001 6.261951e-002
         vertex 4.514845e-001 2.691834e-001 3.761951e-002
         vertex 4.572184e-001 2.676470e-001 3.761951e-002
      endloop
   endfacet
   facet normal -2.868663e-001 -9.579706e-001 1.040057e-032
      outer loop
         vertex 4.514845e-001 2.691834e-001 6.261951e-002
         vertex 4.572184e-001 2.676470e-001 3.761951e-002
         vertex 4.572184e-001 2.676470e-001 6.261951e-002
      endloop
   endfacet
   facet normal -3.960194e-001 -9.182422e-001 9.375383e-033
      outer loop
         vertex 4.572184e-001 2.676470e-001 6.261951e-002
         vertex 4.572184e-001 2.676470e-001 3.761951e-002
         vertex 4.625984e-001 2.651383e-001 3.761951e-002
      endloop
   endfacet
   facet normal -4.488580e-001 -8.936031e-001 8.812463e-033
      outer loop
         vertex 4.572184e-001 2.676470e-001 6.261951e-002
         vertex 4.625984e-001 2.651383e-001 3.761951e-002
         vertex 4.625984e-001 2.651383e-001 6.261951e-002
      endloop
   endfacet
   facet normal -5.494540e-001 -8.355240e-001 7.603070e-033
      outer loop
         vertex 4.625984e-001 2.651383e-001 6.261951e-002
         vertex 4.625984e-001 2.651383e-001 3.761951e-002
         vertex 4.674611e-001 2.617334e-001 3.761951e-002
      endloop
   endfacet
   facet normal -5.972114e-001 -8.020839e-001 6.956598e-033
      outer loop
         vertex 4.625984e-001 2.651383e-001 6.261951e-002
         vertex 4.674611e-001 2.617334e-001 3.761951e-002
         vertex 4.674611e-001 2.617334e-001 6.261951e-002
      endloop
   endfacet
   facet normal -6.861938e-001 -7.274188e-001 5.599742e-033
      outer loop
         vertex 4.674611e-001 2.617334e-001 6.261951e-002
         vertex 4.674611e-001 2.617334e-001 3.761951e-002
         vertex 4.716586e-001 2.575359e-001 3.761951e-002
      endloop
   endfacet
   facet normal -7.274188e-001 -6.861938e-001 4.889359e-033
      outer loop
         vertex 4.674611e-001 2.617334e-001 6.261951e-002
         vertex 4.716586e-001 2.575359e-001 3.761951e-002
         vertex 4.716586e-001 2.575359e-001 6.261951e-002
      endloop
   endfacet
   facet normal -8.020839e-001 -5.972114e-001 3.426268e-033
      outer loop
         vertex 4.716586e-001 2.575359e-001 6.261951e-002
         vertex 4.716586e-001 2.575359e-001 3.761951e-002
         vertex 4.750635e-001 2.526732e-001 3.761951e-002
      endloop
   endfacet
   facet normal -8.355240e-001 -5.494540e-001 2.673560e-033
      outer loop
         vertex 4.716586e-001 2.575359e-001 6.261951e-002
         vertex 4.750635e-001 2.526732e-001 3.761951e-002
         vertex 4.750635e-001 2.526732e-001 6.261951e-002
      endloop
   endfacet
   facet normal -8.936031e-001 -4.488580e-001 1.148689e-033
      outer loop
         vertex 4.750635e-001 2.526732e-001 6.261951e-002
         vertex 4.750635e-001 2.526732e-001 3.761951e-002
         vertex 4.775722e-001 2.472932e-001 3.761951e-002
      endloop
   endfacet
   facet normal -9.182422e-001 -3.960194e-001 3.765263e-034
      outer loop
         vertex 4.750635e-001 2.526732e-001 6.261951e-002
         vertex 4.775722e-001 2.472932e-001 3.761951e-002
         vertex 4.775722e-001 2.472932e-001 6.261951e-002
      endloop
   endfacet
   facet normal -9.579706e-001 -2.868663e-001 -1.163793e-033
      outer loop
         vertex 4.775722e-001 2.472932e-001 6.261951e-002
         vertex 4.775722e-001 2.472932e-001 3.761951e-002
         vertex 4.791086e-001 2.415593e-001 3.761951e-002
      endloop
   endfacet
   facet normal -9.730600e-001 -2.305519e-001 -1.931949e-033
      outer loop
         vertex 4.775722e-001 2.472932e-001 6.261951e-002
         vertex 4.791086e-001 2.415593e-001 3.761951e-002
         vertex 4.791086e-001 2.415593e-001 6.261951e-002
      endloop
   endfacet
   facet normal -9.932307e-001 -1.161583e-001 -3.440914e-033
      outer loop
         vertex 4.791086e-001 2.415593e-001 6.261951e-002
         vertex 4.791086e-001 2.415593e-001 3.761951e-002
         vertex 4.796260e-001 2.356457e-001 3.761951e-002
      endloop
   endfacet
   facet normal -9.983120e-001 -5.807914e-002 -4.181722e-033
      outer loop
         vertex 4.791086e-001 2.415593e-001 6.261951e-002
         vertex 4.796260e-001 2.356457e-001 3.761951e-002
         vertex 4.796260e-001 2.356457e-001 6.261951e-002
      endloop
   endfacet
   facet normal -1.000000e+000 -2.632219e-016 -4.905884e-033
      outer loop
         vertex 4.796260e-001 1.017322e-002 6.261951e-002
         vertex 4.796260e-001 2.356457e-001 6.261951e-002
         vertex 4.796260e-001 1.017322e-002 3.761951e-002
      endloop
   endfacet
   facet normal -1.000000e+000 -2.632219e-016 -4.905884e-033
      outer loop
         vertex 4.796260e-001 1.017322e-002 3.761951e-002
         vertex 4.796260e-001 2.356457e-001 6.261951e-002
         vertex 4.796260e-001 2.356457e-001 3.761951e-002
      endloop
   endfacet
   facet normal 2.449294e-016 -1.000000e+000 1.232595e-032
      outer loop
         vertex 4.875000e-001 2.299204e-003 4.549353e-002
         vertex 4.967520e-001 2.299204e-003 4.549353e-002
         vertex 4.875000e-001 2.299204e-003 5.474549e-002
      endloop
   endfacet
   facet normal 2.449294e-016 -1.000000e+000 1.232595e-032
      outer loop
         vertex 4.875000e-001 2.299204e-003 5.474549e-002
         vertex 4.967520e-001 2.299204e-003 4.549353e-002
         vertex 4.967520e-001 2.299204e-003 5.474549e-002
      endloop
   endfacet
   facet normal 1.000000e+000 2.449294e-016 4.905884e-033
      outer loop
         vertex 5.046260e-001 1.017322e-002 3.761951e-002
         vertex 5.046260e-001 2.356457e-001 3.761951e-002
         vertex 5.046260e-001 1.017322e-002 6.261951e-002
      endloop
   endfacet
   facet normal 1.000000e+000 2.449294e-016 4.905884e-033
      outer loop
         vertex 5.046260e-001 1.017322e-002 6.261951e-002
         vertex 5.046260e-001 2.356457e-001 3.761951e-002
         vertex 5.046260e-001 2.356457e-001 6.261951e-002
      endloop
   endfacet
   facet normal 1.119601e-032 1.232595e-032 1.000000e+000
      outer loop
         vertex 1.023622e-002 2.947008e-001 6.261951e-002
         vertex 1.023622e-002 2.697008e-001 6.261951e-002
         vertex 4.455709e-001 2.947008e-001 6.261951e-002
      endloop
   endfacet
   facet normal 1.119601e-032 1.232595e-032 1.000000e+000
      outer loop
         vertex 4.455709e-001 2.947008e-001 6.261951e-002
         vertex 1.023622e-002 2.697008e-001 6.261951e-002
         vertex 4.455709e-001 2.697008e-001 6.261951e-002
      endloop
   endfacet
   facet normal 1.119601e-032 1.232595e-032 1.000000e+000
      outer loop
         vertex 4.455709e-001 2.947008e-001 6.261951e-002
         vertex 4.455709e-001 2.697008e-001 6.261951e-002
         vertex 4.548092e-001 2.939737e-001 6.261951e-002
      endloop
   endfacet
   facet normal 1.119601e-032 1.232595e-032 1.000000e+000
      outer loop
         vertex 4.548092e-001 2.939737e-001 6.261951e-002
         vertex 4.455709e-001 2.697008e-001 6.261951e-002
         vertex 4.514845e-001 2.691834e-001 6.261951e-002
      endloop
   endfacet
   facet normal 1.119601e-032 1.232595e-032 1.000000e+000
      outer loop
         vertex 4.548092e-001 2.939737e-001 6.261951e-002
         vertex 4.514845e-001 2.691834e-001 6.261951e-002
         vertex 4.638199e-001 2.918104e-001 6.261951e-002
      endloop
   endfacet
   facet normal 1.119601e-032 1.232595e-032 1.000000e+000
      outer loop
         vertex 4.638199e-001 2.918104e-001 6.261951e-002
         vertex 4.514845e-001 2.691834e-001 6.261951e-002
         vertex 4.572184e-001 2.676470e-001 6.261951e-002
      endloop
   endfacet
   facet normal 1.119601e-032 1.232595e-032 1.000000e+000
      outer loop
         vertex 4.638199e-001 2.918104e-001 6.261951e-002
         vertex 4.572184e-001 2.676470e-001 6.261951e-002
         vertex 4.723813e-001 2.882642e-001 6.261951e-002
      endloop
   endfacet
   facet normal 1.119601e-032 1.232595e-032 1.000000e+000
      outer loop
         vertex 4.723813e-001 2.882642e-001 6.261951e-002
         vertex 4.572184e-001 2.676470e-001 6.261951e-002
         vertex 4.625984e-001 2.651383e-001 6.261951e-002
      endloop
   endfacet
   facet normal 1.119601e-032 1.232595e-032 1.000000e+000
      outer loop
         vertex 4.723813e-001 2.882642e-001 6.261951e-002
         vertex 4.625984e-001 2.651383e-001 6.261951e-002
         vertex 4.802826e-001 2.834223e-001 6.261951e-002
      endloop
   endfacet
   facet normal 1.119601e-032 1.232595e-032 1.000000e+000
      outer loop
         vertex 4.802826e-001 2.834223e-001 6.261951e-002
         vertex 4.625984e-001 2.651383e-001 6.261951e-002
         vertex 4.674611e-001 2.617334e-001 6.261951e-002
      endloop
   endfacet
   facet normal 1.119601e-032 1.232595e-032 1.000000e+000
      outer loop
         vertex 4.802826e-001 2.834223e-001 6.261951e-002
         vertex 4.674611e-001 2.617334e-001 6.261951e-002
         vertex 4.873291e-001 2.774039e-001 6.261951e-002
      endloop
   endfacet
   facet normal 1.119601e-032 1.232595e-032 1.000000e+000
      outer loop
         vertex 4.873291e-001 2.774039e-001 6.261951e-002
         vertex 4.674611e-001 2.617334e-001 6.261951e-002
         vertex 4.716586e-001 2.575359e-001 6.261951e-002
      endloop
   endfacet
   facet normal 1.119601e-032 1.232595e-032 1.000000e+000
      outer loop
         vertex 4.796260e-001 1.017322e-002 6.261951e-002
         vertex 5.046260e-001 1.017322e-002 6.261951e-002
         vertex 4.796260e-001 2.356457e-001 6.261951e-002
      endloop
   endfacet
   facet normal 1.119601e-032 1.232595e-032 1.000000e+000
      outer loop
         vertex 4.796260e-001 2.356457e-001 6.261951e-002
         vertex 5.046260e-001 1.017322e-002 6.261951e-002
         vertex 5.046260e-001 2.356457e-001 6.261951e-002
      endloop
   endfacet
   facet normal 1.119601e-032 1.232595e-032 1.000000e+000
      outer loop
         vertex 4.796260e-001 2.356457e-001 6.261951e-002
         vertex 5.046260e-001 2.356457e-001 6.261951e-002
         vertex 4.791086e-001 2.415593e-001 6.261951e-002
      endloop
   endfacet
   facet normal 1.119601e-032 1.232595e-032 1.000000e+000
      outer loop
         vertex 4.791086e-001 2.415593e-001 6.261951e-002
         vertex 5.046260e-001 2.356457e-001 6.261951e-002
         vertex 5.038989e-001 2.448839e-001 6.261951e-002
      endloop
   endfacet
   facet normal 1.119601e-032 1.232595e-032 1.000000e+000
      outer loop
         vertex 4.791086e-001 2.415593e-001 6.261951e-002
         vertex 5.038989e-001 2.448839e-001 6.261951e-002
         vertex 4.775722e-001 2.472932e-001 6.261951e-002
      endloop
   endfacet
   facet normal 1.119601e-032 1.232595e-032 1.000000e+000
      outer loop
         vertex 4.775722e-001 2.472932e-001 6.261951e-002
         vertex 5.038989e-001 2.448839e-001 6.261951e-002
         vertex 5.017356e-001 2.538947e-001 6.261951e-002
      endloop
   endfacet
   facet normal 1.119601e-032 1.232595e-032 1.000000e+000
      outer loop
         vertex 4.775722e-001 2.472932e-001 6.261951e-002
         vertex 5.017356e-001 2.538947e-001 6.261951e-002
         vertex 4.750635e-001 2.526732e-001 6.261951e-002
      endloop
   endfacet
   facet normal 1.119601e-032 1.232595e-032 1.000000e+000
      outer loop
         vertex 4.750635e-001 2.526732e-001 6.261951e-002
         vertex 5.017356e-001 2.538947e-001 6.261951e-002
         vertex 4.981894e-001 2.624561e-001 6.261951e-002
      endloop
   endfacet
   facet normal 1.119601e-032 1.232595e-032 1.000000e+000
      outer loop
         vertex 4.750635e-001 2.526732e-001 6.261951e-002
         vertex 4.981894e-001 2.624561e-001 6.261951e-002
         vertex 4.716586e-001 2.575359e-001 6.261951e-002
      endloop
   endfacet
   facet normal 1.119601e-032 1.232595e-032 1.000000e+000
      outer loop
         vertex 4.716586e-001 2.575359e-001 6.261951e-002
         vertex 4.981894e-001 2.624561e-001 6.261951e-002
         vertex 4.933475e-001 2.703574e-001 6.261951e-002
      endloop
   endfacet
   facet normal 1.119601e-032 1.232595e-032 1.000000e+000
      outer loop
         vertex 4.716586e-001 2.575359e-001 6.261951e-002
         vertex 4.933475e-001 2.703574e-001 6.261951e-002
         vertex 4.873291e-001 2.774039e-001 6.261951e-002
      endloop
   endfacet
   facet normal -1.119601e-032 -1.232595e-032 -1.000000e+000
      outer loop
         vertex 5.046260e-001 1.017322e-002 3.761951e-002
         vertex 4.796260e-001 1.017322e-002 3.761951e-002
         vertex 5.046260e-001 2.356457e-001 3.761951e-002
      endloop
   endfacet
   facet normal -1.119601e-032 -1.232595e-032 -1.000000e+000
      outer loop
         vertex 5.046260e-001 2.356457e-001 3.761951e-002
         vertex 4.796260e-001 1.017322e-002 3.761951e-002
         vertex 4.796260e-001 2.356457e-001 3.761951e-002
      endloop
   endfacet
   facet normal -1.119601e-032 -1.232595e-032 -1.000000e+000
      outer loop
         vertex 5.046260e-001 2.356457e-001 3.761951e-002
         vertex 4.796260e-001 2.356457e-001 3.761951e-002
         vertex 5.038989e-001 2.448839e-001 3.761951e-002
      endloop
   endfacet
   facet normal -1.119601e-032 -1.232595e-032 -1.000000e+000
      outer loop
         vertex 5.038989e-001 2.448839e-001 3.761951e-002
         vertex 4.796260e-001 2.356457e-001 3.761951e-002
         vertex 4.791086e-001 2.415593e-001 3.761951e-002
      endloop
   endfacet
   facet normal -1.119601e-032 -1.232595e-032 -1.000000e+000
      outer loop
         vertex 5.038989e-001 2.448839e-001 3.761951e-002
         vertex 4.791086e-001 2.415593e-001 3.761951e-002
         vertex 5.017356e-001 2.538947e-001 3.761951e-002
      endloop
   endfacet
   facet normal -1.119601e-032 -1.232595e-032 -1.000000e+000
      outer loop
         vertex 5.017356e-001 2.538947e-001 3.761951e-002
         vertex 4.791086e-001 2.415593e-001 3.761951e-002
         vertex 4.775722e-001 2.472932e-001 3.761951e-002
      endloop
   endfacet
   facet normal -1.119601e-032 -1.232595e-032 -1.000000e+000
      outer loop
         vertex 5.017356e-001 2.538947e-001 3.761951e-002
         vertex 4.775722e-001 2.472932e-001 3.761951e-002
         vertex 4.981894e-001 2.624561e-001 3.761951e-002
      endloop
   endfacet
   facet normal -1.119601e-032 -1.232595e-032 -1.000000e+000
      outer loop
         vertex 4.981894e-001 2.624561e-001 3.761951e-002
         vertex 4.775722e-001 2.472932e-001 3.761951e-002
         vertex 4.750635e-001 2.526732e-001 3.761951e-002
      endloop
   endfacet
   facet normal -1.119601e-032 -1.232595e-032 -1.000000e+000
      outer loop
         vertex 4.981894e-001 2.624561e-001 3.761951e-002
         vertex 4.750635e-001 2.526732e-001 3.761951e-002
         vertex 4.933475e-001 2.703574e-001 3.761951e-002
      endloop
   endfacet
   facet normal -1.119601e-032 -1.232595e-032 -1.000000e+000
      outer loop
         vertex 4.933475e-001 2.703574e-001 3.761951e-002
         vertex 4.750635e-001 2.526732e-001 3.761951e-002
         vertex 4.716586e-001 2.575359e-001 3.761951e-002
      endloop
   endfacet
   facet normal -1.119601e-032 -1.232595e-032 -1.000000e+000
      outer loop
         vertex 4.933475e-001 2.703574e-001 3.761951e-002
         vertex 4.716586e-001 2.575359e-001 3.761951e-002
         vertex 4.873291e-001 2.774039e-001 3.761951e-002
      endloop
   endfacet
   facet normal -1.119601e-032 -1.232595e-032 -1.000000e+000
      outer loop
         vertex 4.873291e-001 2.774039e-001 3.761951e-002
         vertex 4.716586e-001 2.575359e-001 3.761951e-002
         vertex 4.674611e-001 2.617334e-001 3.761951e-002
      endloop
   endfacet
   facet normal -1.119601e-032 -1.232595e-032 -1.000000e+000
      outer loop
         vertex 1.023622e-002 2.697008e-001 3.761951e-002
         vertex 1.023622e-002 2.947008e-001 3.761951e-002
         vertex 4.455709e-001 2.697008e-001 3.761951e-002
      endloop
   endfacet
   facet normal -1.119601e-032 -1.232595e-032 -1.000000e+000
      outer loop
         vertex 4.455709e-001 2.697008e-001 3.761951e-002
         vertex 1.023622e-002 2.947008e-001 3.761951e-002
         vertex 4.455709e-001 2.947008e-001 3.761951e-002
      endloop
   endfacet
   facet normal -1.119601e-032 -1.232595e-032 -1.000000e+000
      outer loop
         vertex 4.455709e-001 2.697008e-001 3.761951e-002
         vertex 4.455709e-001 2.947008e-001 3.761951e-002
         vertex 4.514845e-001 2.691834e-001 3.761951e-002
      endloop
   endfacet
   facet normal -1.119601e-032 -1.232595e-032 -1.000000e+000
      outer loop
         vertex 4.514845e-001 2.691834e-001 3.761951e-002
         vertex 4.455709e-001 2.947008e-001 3.761951e-002
         vertex 4.548092e-001 2.939737e-001 3.761951e-002
      endloop
   endfacet
   facet normal -1.119601e-032 -1.232595e-032 -1.000000e+000
      outer loop
         vertex 4.514845e-001 2.691834e-001 3.761951e-002
         vertex 4.548092e-001 2.939737e-001 3.761951e-002
         vertex 4.572184e-001 2.676470e-001 3.761951e-002
      endloop
   endfacet
   facet normal -1.119601e-032 -1.232595e-032 -1.000000e+000
      outer loop
         vertex 4.572184e-001 2.676470e-001 3.761951e-002
         vertex 4.548092e-001 2.939737e-001 3.761951e-002
         vertex 4.638199e-001 2.918104e-001 3.761951e-002
      endloop
   endfacet
   facet normal -1.119601e-032 -1.232595e-032 -1.000000e+000
      outer loop
         vertex 4.572184e-001 2.676470e-001 3.761951e-002
         vertex 4.638199e-001 2.918104e-001 3.761951e-002
         vertex 4.625984e-001 2.651383e-001 3.761951e-002
      endloop
   endfacet
   facet normal -1.119601e-032 -1.232595e-032 -1.000000e+000
      outer loop
         vertex 4.625984e-001 2.651383e-001 3.761951e-002
         vertex 4.638199e-001 2.918104e-001 3.761951e-002
         vertex 4.723813e-001 2.882642e-001 3.761951e-002
      endloop
   endfacet
   facet normal -1.119601e-032 -1.232595e-032 -1.000000e+000
      outer loop
         vertex 4.625984e-001 2.651383e-001 3.761951e-002
         vertex 4.723813e-001 2.882642e-001 3.761951e-002
         vertex 4.674611e-001 2.617334e-001 3.761951e-002
      endloop
   endfacet
   facet normal -1.119601e-032 -1.232595e-032 -1.000000e+000
      outer loop
         vertex 4.674611e-001 2.617334e-001 3.761951e-002
         vertex 4.723813e-001 2.882642e-001 3.761951e-002
         vertex 4.802826e-001 2.834223e-001 3.761951e-002
      endloop
   endfacet
   facet normal -1.119601e-032 -1.232595e-032 -1.000000e+000
      outer loop
         vertex 4.674611e-001 2.617334e-001 3.761951e-002
         vertex 4.802826e-001 2.834223e-001 3.761951e-002
         vertex 4.873291e-001 2.774039e-001 3.761951e-002
      endloop
   endfacet
   facet normal -7.071068e-001 -7.071068e-001 5.246780e-033
      outer loop
         vertex 1.023622e-002 2.697008e-001 6.261951e-002
         vertex 2.362218e-003 2.775748e-001 5.474549e-002
         vertex 1.023622e-002 2.697008e-001 3.761951e-002
      endloop
   endfacet
   facet normal -7.071068e-001 -7.071068e-001 5.246780e-033
      outer loop
         vertex 1.023622e-002 2.697008e-001 3.761951e-002
         vertex 2.362218e-003 2.775748e-001 5.474549e-002
         vertex 2.362218e-003 2.775748e-001 4.549353e-002
      endloop
   endfacet
   facet normal -7.071068e-001 -1.731912e-016 7.071068e-001
      outer loop
         vertex 1.023622e-002 2.947008e-001 6.261951e-002
         vertex 2.362218e-003 2.868268e-001 5.474549e-002
         vertex 1.023622e-002 2.697008e-001 6.261951e-002
      endloop
   endfacet
   facet normal -7.071068e-001 -1.731912e-016 7.071068e-001
      outer loop
         vertex 1.023622e-002 2.697008e-001 6.261951e-002
         vertex 2.362218e-003 2.868268e-001 5.474549e-002
         vertex 2.362218e-003 2.775748e-001 5.474549e-002
      endloop
   endfacet
   facet normal -7.071068e-001 -1.731912e-016 -7.071068e-001
      outer loop
         vertex 2.362218e-003 2.868268e-001 4.549353e-002
         vertex 1.023622e-002 2.947008e-001 3.761951e-002
         vertex 2.362218e-003 2.775748e-001 4.549353e-002
      endloop
   endfacet
   facet normal -7.071068e-001 -1.731912e-016 -7.071068e-001
      outer loop
         vertex 2.362218e-003 2.775748e-001 4.549353e-002
         vertex 1.023622e-002 2.947008e-001 3.761951e-002
         vertex 1.023622e-002 2.697008e-001 3.761951e-002
      endloop
   endfacet
   facet normal -7.071068e-001 7.071068e-001 -1.218475e-032
      outer loop
         vertex 1.023622e-002 2.947008e-001 3.761951e-002
         vertex 2.362218e-003 2.868268e-001 4.549353e-002
         vertex 1.023622e-002 2.947008e-001 6.261951e-002
      endloop
   endfacet
   facet normal -7.071068e-001 7.071068e-001 -1.218475e-032
      outer loop
         vertex 1.023622e-002 2.947008e-001 6.261951e-002
         vertex 2.362218e-003 2.868268e-001 4.549353e-002
         vertex 2.362218e-003 2.868268e-001 5.474549e-002
      endloop
   endfacet
   facet normal 7.071068e-001 -7.071068e-001 1.218475e-032
      outer loop
         vertex 5.046260e-001 1.017322e-002 6.261951e-002
         vertex 4.967520e-001 2.299204e-003 5.474549e-002
         vertex 5.046260e-001 1.017322e-002 3.761951e-002
      endloop
   endfacet
   facet normal 7.071068e-001 -7.071068e-001 1.218475e-032
      outer loop
         vertex 5.046260e-001 1.017322e-002 3.761951e-002
         vertex 4.967520e-001 2.299204e-003 5.474549e-002
         vertex 4.967520e-001 2.299204e-003 4.549353e-002
      endloop
   endfacet
   facet normal 1.731912e-016 -7.071068e-001 7.071068e-001
      outer loop
         vertex 4.796260e-001 1.017322e-002 6.261951e-002
         vertex 4.875000e-001 2.299204e-003 5.474549e-002
         vertex 5.046260e-001 1.017322e-002 6.261951e-002
      endloop
   endfacet
   facet normal 1.731912e-016 -7.071068e-001 7.071068e-001
      outer loop
         vertex 5.046260e-001 1.017322e-002 6.261951e-002
         vertex 4.875000e-001 2.299204e-003 5.474549e-002
         vertex 4.967520e-001 2.299204e-003 5.474549e-002
      endloop
   endfacet
   facet normal 1.731912e-016 -7.071068e-001 -7.071068e-001
      outer loop
         vertex 4.875000e-001 2.299204e-003 4.549353e-002
         vertex 4.796260e-001 1.017322e-002 3.761951e-002
         vertex 4.967520e-001 2.299204e-003 4.549353e-002
      endloop
   endfacet
   facet normal 1.731912e-016 -7.071068e-001 -7.071068e-001
      outer loop
         vertex 4.967520e-001 2.299204e-003 4.549353e-002
         vertex 4.796260e-001 1.017322e-002 3.761951e-002
         vertex 5.046260e-001 1.017322e-002 3.761951e-002
      endloop
   endfacet
   facet normal -7.071068e-001 -7.071068e-001 5.246780e-033
      outer loop
         vertex 4.796260e-001 1.017322e-002 3.761951e-002
         vertex 4.875000e-001 2.299204e-003 4.549353e-002
         vertex 4.796260e-001 1.017322e-002 6.261951e-002
      endloop
   endfacet
   facet normal -7.071068e-001 -7.071068e-001 5.246780e-033
      outer loop
         vertex 4.796260e-001 1.017322e-002 6.261951e-002
         vertex 4.875000e-001 2.299204e-003 4.549353e-002
         vertex 4.875000e-001 2.299204e-003 5.474549e-002
      endloop
   endfacet
endsolid