solid 3M 9612xx-5604-AR - 3M 9612xx-5604-AR Pin2-1
   facet normal 9.986320e-001 5.228807e-002 0.000000e+000
      outer loop
         vertex 4.046260e-001 1.356457e-001 6.265888e-002
         vertex 4.046260e-001 1.356457e-001 3.765888e-002
         vertex 4.038989e-001 1.448839e-001 3.765888e-002
      endloop
   endfacet
   facet normal 9.945169e-001 1.045761e-001 0.000000e+000
      outer loop
         vertex 4.046260e-001 1.356457e-001 6.265888e-002
         vertex 4.038989e-001 1.448839e-001 3.765888e-002
         vertex 4.038989e-001 1.448839e-001 6.265888e-002
      endloop
   endfacet
   facet normal 9.781576e-001 2.078648e-001 0.000000e+000
      outer loop
         vertex 4.038989e-001 1.448839e-001 6.265888e-002
         vertex 4.038989e-001 1.448839e-001 3.765888e-002
         vertex 4.017356e-001 1.538947e-001 3.765888e-002
      endloop
   endfacet
   facet normal 9.659134e-001 2.588654e-001 0.000000e+000
      outer loop
         vertex 4.038989e-001 1.448839e-001 6.265888e-002
         vertex 4.017356e-001 1.538947e-001 3.765888e-002
         vertex 4.017356e-001 1.538947e-001 6.265888e-002
      endloop
   endfacet
   facet normal 9.335976e-001 3.583232e-001 0.000000e+000
      outer loop
         vertex 4.017356e-001 1.538947e-001 6.265888e-002
         vertex 4.017356e-001 1.538947e-001 3.765888e-002
         vertex 3.981894e-001 1.624561e-001 3.765888e-002
      endloop
   endfacet
   facet normal 9.135259e-001 4.067805e-001 0.000000e+000
      outer loop
         vertex 4.017356e-001 1.538947e-001 6.265888e-002
         vertex 3.981894e-001 1.624561e-001 3.765888e-002
         vertex 3.981894e-001 1.624561e-001 6.265888e-002
      endloop
   endfacet
   facet normal 8.660494e-001 4.999584e-001 0.000000e+000
      outer loop
         vertex 3.981894e-001 1.624561e-001 6.265888e-002
         vertex 3.981894e-001 1.624561e-001 3.765888e-002
         vertex 3.933475e-001 1.703574e-001 3.765888e-002
      endloop
   endfacet
   facet normal 8.386444e-001 5.446792e-001 0.000000e+000
      outer loop
         vertex 3.981894e-001 1.624561e-001 6.265888e-002
         vertex 3.933475e-001 1.703574e-001 3.765888e-002
         vertex 3.933475e-001 1.703574e-001 6.265888e-002
      endloop
   endfacet
   facet normal 7.771761e-001 6.292831e-001 0.000000e+000
      outer loop
         vertex 3.933475e-001 1.703574e-001 6.265888e-002
         vertex 3.933475e-001 1.703574e-001 3.765888e-002
         vertex 3.873291e-001 1.774039e-001 3.765888e-002
      endloop
   endfacet
   facet normal 7.431127e-001 6.691663e-001 0.000000e+000
      outer loop
         vertex 3.933475e-001 1.703574e-001 6.265888e-002
         vertex 3.873291e-001 1.774039e-001 3.765888e-002
         vertex 3.873291e-001 1.774039e-001 6.265888e-002
      endloop
   endfacet
   facet normal 6.691663e-001 7.431127e-001 0.000000e+000
      outer loop
         vertex 3.873291e-001 1.774039e-001 6.265888e-002
         vertex 3.873291e-001 1.774039e-001 3.765888e-002
         vertex 3.802826e-001 1.834223e-001 3.765888e-002
      endloop
   endfacet
   facet normal 6.292831e-001 7.771761e-001 0.000000e+000
      outer loop
         vertex 3.873291e-001 1.774039e-001 6.265888e-002
         vertex 3.802826e-001 1.834223e-001 3.765888e-002
         vertex 3.802826e-001 1.834223e-001 6.265888e-002
      endloop
   endfacet
   facet normal 5.446792e-001 8.386444e-001 0.000000e+000
      outer loop
         vertex 3.802826e-001 1.834223e-001 6.265888e-002
         vertex 3.802826e-001 1.834223e-001 3.765888e-002
         vertex 3.723813e-001 1.882642e-001 3.765888e-002
      endloop
   endfacet
   facet normal 4.999584e-001 8.660494e-001 0.000000e+000
      outer loop
         vertex 3.802826e-001 1.834223e-001 6.265888e-002
         vertex 3.723813e-001 1.882642e-001 3.765888e-002
         vertex 3.723813e-001 1.882642e-001 6.265888e-002
      endloop
   endfacet
   facet normal 4.067805e-001 9.135259e-001 0.000000e+000
      outer loop
         vertex 3.723813e-001 1.882642e-001 6.265888e-002
         vertex 3.723813e-001 1.882642e-001 3.765888e-002
         vertex 3.638199e-001 1.918104e-001 3.765888e-002
      endloop
   endfacet
   facet normal 3.583232e-001 9.335976e-001 0.000000e+000
      outer loop
         vertex 3.723813e-001 1.882642e-001 6.265888e-002
         vertex 3.638199e-001 1.918104e-001 3.765888e-002
         vertex 3.638199e-001 1.918104e-001 6.265888e-002
      endloop
   endfacet
   facet normal 2.588654e-001 9.659134e-001 0.000000e+000
      outer loop
         vertex 3.638199e-001 1.918104e-001 6.265888e-002
         vertex 3.638199e-001 1.918104e-001 3.765888e-002
         vertex 3.548091e-001 1.939737e-001 3.765888e-002
      endloop
   endfacet
   facet normal 2.078648e-001 9.781576e-001 0.000000e+000
      outer loop
         vertex 3.638199e-001 1.918104e-001 6.265888e-002
         vertex 3.548091e-001 1.939737e-001 3.765888e-002
         vertex 3.548091e-001 1.939737e-001 6.265888e-002
      endloop
   endfacet
   facet normal 1.045761e-001 9.945169e-001 0.000000e+000
      outer loop
         vertex 3.548091e-001 1.939737e-001 6.265888e-002
         vertex 3.548091e-001 1.939737e-001 3.765888e-002
         vertex 3.455709e-001 1.947008e-001 3.765888e-002
      endloop
   endfacet
   facet normal 5.228807e-002 9.986320e-001 0.000000e+000
      outer loop
         vertex 3.548091e-001 1.939737e-001 6.265888e-002
         vertex 3.455709e-001 1.947008e-001 3.765888e-002
         vertex 3.455709e-001 1.947008e-001 6.265888e-002
      endloop
   endfacet
   facet normal -9.148951e-017 1.000000e+000 0.000000e+000
      outer loop
         vertex 1.023621e-002 1.947008e-001 6.265888e-002
         vertex 3.455709e-001 1.947008e-001 6.265888e-002
         vertex 1.023621e-002 1.947008e-001 3.765888e-002
      endloop
   endfacet
   facet normal -9.148951e-017 1.000000e+000 0.000000e+000
      outer loop
         vertex 1.023621e-002 1.947008e-001 3.765888e-002
         vertex 3.455709e-001 1.947008e-001 6.265888e-002
         vertex 3.455709e-001 1.947008e-001 3.765888e-002
      endloop
   endfacet
   facet normal -1.000000e+000 -2.449294e-016 0.000000e+000
      outer loop
         vertex 2.362210e-003 1.868268e-001 4.553290e-002
         vertex 2.362210e-003 1.775748e-001 4.553290e-002
         vertex 2.362210e-003 1.868268e-001 5.478486e-002
      endloop
   endfacet
   facet normal -1.000000e+000 -2.449294e-016 0.000000e+000
      outer loop
         vertex 2.362210e-003 1.868268e-001 5.478486e-002
         vertex 2.362210e-003 1.775748e-001 4.553290e-002
         vertex 2.362210e-003 1.775748e-001 5.478486e-002
      endloop
   endfacet
   facet normal 2.449294e-016 -1.000000e+000 0.000000e+000
      outer loop
         vertex 1.023621e-002 1.697008e-001 3.765888e-002
         vertex 3.455709e-001 1.697008e-001 3.765888e-002
         vertex 1.023621e-002 1.697008e-001 6.265888e-002
      endloop
   endfacet
   facet normal 2.449294e-016 -1.000000e+000 0.000000e+000
      outer loop
         vertex 1.023621e-002 1.697008e-001 6.265888e-002
         vertex 3.455709e-001 1.697008e-001 3.765888e-002
         vertex 3.455709e-001 1.697008e-001 6.265888e-002
      endloop
   endfacet
   facet normal -5.807914e-002 -9.983120e-001 0.000000e+000
      outer loop
         vertex 3.455709e-001 1.697008e-001 6.265888e-002
         vertex 3.455709e-001 1.697008e-001 3.765888e-002
         vertex 3.514845e-001 1.691834e-001 3.765888e-002
      endloop
   endfacet
   facet normal -1.161583e-001 -9.932307e-001 0.000000e+000
      outer loop
         vertex 3.455709e-001 1.697008e-001 6.265888e-002
         vertex 3.514845e-001 1.691834e-001 3.765888e-002
         vertex 3.514845e-001 1.691834e-001 6.265888e-002
      endloop
   endfacet
   facet normal -2.305519e-001 -9.730600e-001 0.000000e+000
      outer loop
         vertex 3.514845e-001 1.691834e-001 6.265888e-002
         vertex 3.514845e-001 1.691834e-001 3.765888e-002
         vertex 3.572184e-001 1.676470e-001 3.765888e-002
      endloop
   endfacet
   facet normal -2.868663e-001 -9.579706e-001 0.000000e+000
      outer loop
         vertex 3.514845e-001 1.691834e-001 6.265888e-002
         vertex 3.572184e-001 1.676470e-001 3.765888e-002
         vertex 3.572184e-001 1.676470e-001 6.265888e-002
      endloop
   endfacet
   facet normal -3.960194e-001 -9.182422e-001 0.000000e+000
      outer loop
         vertex 3.572184e-001 1.676470e-001 6.265888e-002
         vertex 3.572184e-001 1.676470e-001 3.765888e-002
         vertex 3.625984e-001 1.651382e-001 3.765888e-002
      endloop
   endfacet
   facet normal -4.488580e-001 -8.936031e-001 0.000000e+000
      outer loop
         vertex 3.572184e-001 1.676470e-001 6.265888e-002
         vertex 3.625984e-001 1.651382e-001 3.765888e-002
         vertex 3.625984e-001 1.651382e-001 6.265888e-002
      endloop
   endfacet
   facet normal -5.494540e-001 -8.355240e-001 0.000000e+000
      outer loop
         vertex 3.625984e-001 1.651382e-001 6.265888e-002
         vertex 3.625984e-001 1.651382e-001 3.765888e-002
         vertex 3.674611e-001 1.617334e-001 3.765888e-002
      endloop
   endfacet
   facet normal -5.972114e-001 -8.020839e-001 0.000000e+000
      outer loop
         vertex 3.625984e-001 1.651382e-001 6.265888e-002
         vertex 3.674611e-001 1.617334e-001 3.765888e-002
         vertex 3.674611e-001 1.617334e-001 6.265888e-002
      endloop
   endfacet
   facet normal -6.861938e-001 -7.274188e-001 0.000000e+000
      outer loop
         vertex 3.674611e-001 1.617334e-001 6.265888e-002
         vertex 3.674611e-001 1.617334e-001 3.765888e-002
         vertex 3.716586e-001 1.575359e-001 3.765888e-002
      endloop
   endfacet
   facet normal -7.274188e-001 -6.861938e-001 0.000000e+000
      outer loop
         vertex 3.674611e-001 1.617334e-001 6.265888e-002
         vertex 3.716586e-001 1.575359e-001 3.765888e-002
         vertex 3.716586e-001 1.575359e-001 6.265888e-002
      endloop
   endfacet
   facet normal -8.020839e-001 -5.972114e-001 0.000000e+000
      outer loop
         vertex 3.716586e-001 1.575359e-001 6.265888e-002
         vertex 3.716586e-001 1.575359e-001 3.765888e-002
         vertex 3.750635e-001 1.526732e-001 3.765888e-002
      endloop
   endfacet
   facet normal -8.355240e-001 -5.494540e-001 0.000000e+000
      outer loop
         vertex 3.716586e-001 1.575359e-001 6.265888e-002
         vertex 3.750635e-001 1.526732e-001 3.765888e-002
         vertex 3.750635e-001 1.526732e-001 6.265888e-002
      endloop
   endfacet
   facet normal -8.936031e-001 -4.488580e-001 0.000000e+000
      outer loop
         vertex 3.750635e-001 1.526732e-001 6.265888e-002
         vertex 3.750635e-001 1.526732e-001 3.765888e-002
         vertex 3.775722e-001 1.472932e-001 3.765888e-002
      endloop
   endfacet
   facet normal -9.182422e-001 -3.960194e-001 0.000000e+000
      outer loop
         vertex 3.750635e-001 1.526732e-001 6.265888e-002
         vertex 3.775722e-001 1.472932e-001 3.765888e-002
         vertex 3.775722e-001 1.472932e-001 6.265888e-002
      endloop
   endfacet
   facet normal -9.579706e-001 -2.868663e-001 0.000000e+000
      outer loop
         vertex 3.775722e-001 1.472932e-001 6.265888e-002
         vertex 3.775722e-001 1.472932e-001 3.765888e-002
         vertex 3.791086e-001 1.415593e-001 3.765888e-002
      endloop
   endfacet
   facet normal -9.730600e-001 -2.305519e-001 0.000000e+000
      outer loop
         vertex 3.775722e-001 1.472932e-001 6.265888e-002
         vertex 3.791086e-001 1.415593e-001 3.765888e-002
         vertex 3.791086e-001 1.415593e-001 6.265888e-002
      endloop
   endfacet
   facet normal -9.932307e-001 -1.161583e-001 0.000000e+000
      outer loop
         vertex 3.791086e-001 1.415593e-001 6.265888e-002
         vertex 3.791086e-001 1.415593e-001 3.765888e-002
         vertex 3.796260e-001 1.356457e-001 3.765888e-002
      endloop
   endfacet
   facet normal -9.983120e-001 -5.807914e-002 0.000000e+000
      outer loop
         vertex 3.791086e-001 1.415593e-001 6.265888e-002
         vertex 3.796260e-001 1.356457e-001 3.765888e-002
         vertex 3.796260e-001 1.356457e-001 6.265888e-002
      endloop
   endfacet
   facet normal -1.000000e+000 -2.769400e-016 0.000000e+000
      outer loop
         vertex 3.796260e-001 1.017322e-002 6.265888e-002
         vertex 3.796260e-001 1.356457e-001 6.265888e-002
         vertex 3.796260e-001 1.017322e-002 3.765888e-002
      endloop
   endfacet
   facet normal -1.000000e+000 -2.769400e-016 0.000000e+000
      outer loop
         vertex 3.796260e-001 1.017322e-002 3.765888e-002
         vertex 3.796260e-001 1.356457e-001 6.265888e-002
         vertex 3.796260e-001 1.356457e-001 3.765888e-002
      endloop
   endfacet
   facet normal 2.449294e-016 -1.000000e+000 0.000000e+000
      outer loop
         vertex 3.875000e-001 2.299195e-003 4.553290e-002
         vertex 3.967520e-001 2.299195e-003 4.553290e-002
         vertex 3.875000e-001 2.299195e-003 5.478486e-002
      endloop
   endfacet
   facet normal 2.449294e-016 -1.000000e+000 0.000000e+000
      outer loop
         vertex 3.875000e-001 2.299195e-003 5.478486e-002
         vertex 3.967520e-001 2.299195e-003 4.553290e-002
         vertex 3.967520e-001 2.299195e-003 5.478486e-002
      endloop
   endfacet
   facet normal 1.000000e+000 2.449294e-016 0.000000e+000
      outer loop
         vertex 4.046260e-001 1.017322e-002 3.765888e-002
         vertex 4.046260e-001 1.356457e-001 3.765888e-002
         vertex 4.046260e-001 1.017322e-002 6.265888e-002
      endloop
   endfacet
   facet normal 1.000000e+000 2.449294e-016 0.000000e+000
      outer loop
         vertex 4.046260e-001 1.017322e-002 6.265888e-002
         vertex 4.046260e-001 1.356457e-001 3.765888e-002
         vertex 4.046260e-001 1.356457e-001 6.265888e-002
      endloop
   endfacet
   facet normal 0.000000e+000 0.000000e+000 1.000000e+000
      outer loop
         vertex 1.023621e-002 1.947008e-001 6.265888e-002
         vertex 1.023621e-002 1.697008e-001 6.265888e-002
         vertex 3.455709e-001 1.947008e-001 6.265888e-002
      endloop
   endfacet
   facet normal 0.000000e+000 0.000000e+000 1.000000e+000
      outer loop
         vertex 3.455709e-001 1.947008e-001 6.265888e-002
         vertex 1.023621e-002 1.697008e-001 6.265888e-002
         vertex 3.455709e-001 1.697008e-001 6.265888e-002
      endloop
   endfacet
   facet normal 0.000000e+000 0.000000e+000 1.000000e+000
      outer loop
         vertex 3.455709e-001 1.947008e-001 6.265888e-002
         vertex 3.455709e-001 1.697008e-001 6.265888e-002
         vertex 3.548091e-001 1.939737e-001 6.265888e-002
      endloop
   endfacet
   facet normal 0.000000e+000 0.000000e+000 1.000000e+000
      outer loop
         vertex 3.548091e-001 1.939737e-001 6.265888e-002
         vertex 3.455709e-001 1.697008e-001 6.265888e-002
         vertex 3.514845e-001 1.691834e-001 6.265888e-002
      endloop
   endfacet
   facet normal 0.000000e+000 0.000000e+000 1.000000e+000
      outer loop
         vertex 3.548091e-001 1.939737e-001 6.265888e-002
         vertex 3.514845e-001 1.691834e-001 6.265888e-002
         vertex 3.638199e-001 1.918104e-001 6.265888e-002
      endloop
   endfacet
   facet normal 0.000000e+000 0.000000e+000 1.000000e+000
      outer loop
         vertex 3.638199e-001 1.918104e-001 6.265888e-002
         vertex 3.514845e-001 1.691834e-001 6.265888e-002
         vertex 3.572184e-001 1.676470e-001 6.265888e-002
      endloop
   endfacet
   facet normal 0.000000e+000 0.000000e+000 1.000000e+000
      outer loop
         vertex 3.638199e-001 1.918104e-001 6.265888e-002
         vertex 3.572184e-001 1.676470e-001 6.265888e-002
         vertex 3.723813e-001 1.882642e-001 6.265888e-002
      endloop
   endfacet
   facet normal 0.000000e+000 0.000000e+000 1.000000e+000
      outer loop
         vertex 3.723813e-001 1.882642e-001 6.265888e-002
         vertex 3.572184e-001 1.676470e-001 6.265888e-002
         vertex 3.625984e-001 1.651382e-001 6.265888e-002
      endloop
   endfacet
   facet normal 0.000000e+000 0.000000e+000 1.000000e+000
      outer loop
         vertex 3.723813e-001 1.882642e-001 6.265888e-002
         vertex 3.625984e-001 1.651382e-001 6.265888e-002
         vertex 3.802826e-001 1.834223e-001 6.265888e-002
      endloop
   endfacet
   facet normal 0.000000e+000 0.000000e+000 1.000000e+000
      outer loop
         vertex 3.802826e-001 1.834223e-001 6.265888e-002
         vertex 3.625984e-001 1.651382e-001 6.265888e-002
         vertex 3.674611e-001 1.617334e-001 6.265888e-002
      endloop
   endfacet
   facet normal 0.000000e+000 0.000000e+000 1.000000e+000
      outer loop
         vertex 3.802826e-001 1.834223e-001 6.265888e-002
         vertex 3.674611e-001 1.617334e-001 6.265888e-002
         vertex 3.873291e-001 1.774039e-001 6.265888e-002
      endloop
   endfacet
   facet normal 0.000000e+000 0.000000e+000 1.000000e+000
      outer loop
         vertex 3.873291e-001 1.774039e-001 6.265888e-002
         vertex 3.674611e-001 1.617334e-001 6.265888e-002
         vertex 3.716586e-001 1.575359e-001 6.265888e-002
      endloop
   endfacet
   facet normal 0.000000e+000 0.000000e+000 1.000000e+000
      outer loop
         vertex 3.796260e-001 1.017322e-002 6.265888e-002
         vertex 4.046260e-001 1.017322e-002 6.265888e-002
         vertex 3.796260e-001 1.356457e-001 6.265888e-002
      endloop
   endfacet
   facet normal 0.000000e+000 0.000000e+000 1.000000e+000
      outer loop
         vertex 3.796260e-001 1.356457e-001 6.265888e-002
         vertex 4.046260e-001 1.017322e-002 6.265888e-002
         vertex 4.046260e-001 1.356457e-001 6.265888e-002
      endloop
   endfacet
   facet normal 0.000000e+000 0.000000e+000 1.000000e+000
      outer loop
         vertex 3.796260e-001 1.356457e-001 6.265888e-002
         vertex 4.046260e-001 1.356457e-001 6.265888e-002
         vertex 3.791086e-001 1.415593e-001 6.265888e-002
      endloop
   endfacet
   facet normal 0.000000e+000 0.000000e+000 1.000000e+000
      outer loop
         vertex 3.791086e-001 1.415593e-001 6.265888e-002
         vertex 4.046260e-001 1.356457e-001 6.265888e-002
         vertex 4.038989e-001 1.448839e-001 6.265888e-002
      endloop
   endfacet
   facet normal 0.000000e+000 0.000000e+000 1.000000e+000
      outer loop
         vertex 3.791086e-001 1.415593e-001 6.265888e-002
         vertex 4.038989e-001 1.448839e-001 6.265888e-002
         vertex 3.775722e-001 1.472932e-001 6.265888e-002
      endloop
   endfacet
   facet normal 0.000000e+000 0.000000e+000 1.000000e+000
      outer loop
         vertex 3.775722e-001 1.472932e-001 6.265888e-002
         vertex 4.038989e-001 1.448839e-001 6.265888e-002
         vertex 4.017356e-001 1.538947e-001 6.265888e-002
      endloop
   endfacet
   facet normal 0.000000e+000 0.000000e+000 1.000000e+000
      outer loop
         vertex 3.775722e-001 1.472932e-001 6.265888e-002
         vertex 4.017356e-001 1.538947e-001 6.265888e-002
         vertex 3.750635e-001 1.526732e-001 6.265888e-002
      endloop
   endfacet
   facet normal 0.000000e+000 0.000000e+000 1.000000e+000
      outer loop
         vertex 3.750635e-001 1.526732e-001 6.265888e-002
         vertex 4.017356e-001 1.538947e-001 6.265888e-002
         vertex 3.981894e-001 1.624561e-001 6.265888e-002
      endloop
   endfacet
   facet normal 0.000000e+000 0.000000e+000 1.000000e+000
      outer loop
         vertex 3.750635e-001 1.526732e-001 6.265888e-002
         vertex 3.981894e-001 1.624561e-001 6.265888e-002
         vertex 3.716586e-001 1.575359e-001 6.265888e-002
      endloop
   endfacet
   facet normal 0.000000e+000 0.000000e+000 1.000000e+000
      outer loop
         vertex 3.716586e-001 1.575359e-001 6.265888e-002
         vertex 3.981894e-001 1.624561e-001 6.265888e-002
         vertex 3.933475e-001 1.703574e-001 6.265888e-002
      endloop
   endfacet
   facet normal 0.000000e+000 0.000000e+000 1.000000e+000
      outer loop
         vertex 3.716586e-001 1.575359e-001 6.265888e-002
         vertex 3.933475e-001 1.703574e-001 6.265888e-002
         vertex 3.873291e-001 1.774039e-001 6.265888e-002
      endloop
   endfacet
   facet normal 0.000000e+000 0.000000e+000 -1.000000e+000
      outer loop
         vertex 4.046260e-001 1.017322e-002 3.765888e-002
         vertex 3.796260e-001 1.017322e-002 3.765888e-002
         vertex 4.046260e-001 1.356457e-001 3.765888e-002
      endloop
   endfacet
   facet normal 0.000000e+000 0.000000e+000 -1.000000e+000
      outer loop
         vertex 4.046260e-001 1.356457e-001 3.765888e-002
         vertex 3.796260e-001 1.017322e-002 3.765888e-002
         vertex 3.796260e-001 1.356457e-001 3.765888e-002
      endloop
   endfacet
   facet normal 0.000000e+000 0.000000e+000 -1.000000e+000
      outer loop
         vertex 4.046260e-001 1.356457e-001 3.765888e-002
         vertex 3.796260e-001 1.356457e-001 3.765888e-002
         vertex 4.038989e-001 1.448839e-001 3.765888e-002
      endloop
   endfacet
   facet normal 0.000000e+000 0.000000e+000 -1.000000e+000
      outer loop
         vertex 4.038989e-001 1.448839e-001 3.765888e-002
         vertex 3.796260e-001 1.356457e-001 3.765888e-002
         vertex 3.791086e-001 1.415593e-001 3.765888e-002
      endloop
   endfacet
   facet normal 0.000000e+000 0.000000e+000 -1.000000e+000
      outer loop
         vertex 4.038989e-001 1.448839e-001 3.765888e-002
         vertex 3.791086e-001 1.415593e-001 3.765888e-002
         vertex 4.017356e-001 1.538947e-001 3.765888e-002
      endloop
   endfacet
   facet normal 0.000000e+000 0.000000e+000 -1.000000e+000
      outer loop
         vertex 4.017356e-001 1.538947e-001 3.765888e-002
         vertex 3.791086e-001 1.415593e-001 3.765888e-002
         vertex 3.775722e-001 1.472932e-001 3.765888e-002
      endloop
   endfacet
   facet normal 0.000000e+000 0.000000e+000 -1.000000e+000
      outer loop
         vertex 4.017356e-001 1.538947e-001 3.765888e-002
         vertex 3.775722e-001 1.472932e-001 3.765888e-002
         vertex 3.981894e-001 1.624561e-001 3.765888e-002
      endloop
   endfacet
   facet normal 0.000000e+000 0.000000e+000 -1.000000e+000
      outer loop
         vertex 3.981894e-001 1.624561e-001 3.765888e-002
         vertex 3.775722e-001 1.472932e-001 3.765888e-002
         vertex 3.750635e-001 1.526732e-001 3.765888e-002
      endloop
   endfacet
   facet normal 0.000000e+000 0.000000e+000 -1.000000e+000
      outer loop
         vertex 3.981894e-001 1.624561e-001 3.765888e-002
         vertex 3.750635e-001 1.526732e-001 3.765888e-002
         vertex 3.933475e-001 1.703574e-001 3.765888e-002
      endloop
   endfacet
   facet normal 0.000000e+000 0.000000e+000 -1.000000e+000
      outer loop
         vertex 3.933475e-001 1.703574e-001 3.765888e-002
         vertex 3.750635e-001 1.526732e-001 3.765888e-002
         vertex 3.716586e-001 1.575359e-001 3.765888e-002
      endloop
   endfacet
   facet normal 0.000000e+000 0.000000e+000 -1.000000e+000
      outer loop
         vertex 3.933475e-001 1.703574e-001 3.765888e-002
         vertex 3.716586e-001 1.575359e-001 3.765888e-002
         vertex 3.873291e-001 1.774039e-001 3.765888e-002
      endloop
   endfacet
   facet normal 0.000000e+000 0.000000e+000 -1.000000e+000
      outer loop
         vertex 3.873291e-001 1.774039e-001 3.765888e-002
         vertex 3.716586e-001 1.575359e-001 3.765888e-002
         vertex 3.674611e-001 1.617334e-001 3.765888e-002
      endloop
   endfacet
   facet normal 0.000000e+000 0.000000e+000 -1.000000e+000
      outer loop
         vertex 1.023621e-002 1.697008e-001 3.765888e-002
         vertex 1.023621e-002 1.947008e-001 3.765888e-002
         vertex 3.455709e-001 1.697008e-001 3.765888e-002
      endloop
   endfacet
   facet normal 0.000000e+000 0.000000e+000 -1.000000e+000
      outer loop
         vertex 3.455709e-001 1.697008e-001 3.765888e-002
         vertex 1.023621e-002 1.947008e-001 3.765888e-002
         vertex 3.455709e-001 1.947008e-001 3.765888e-002
      endloop
   endfacet
   facet normal 0.000000e+000 0.000000e+000 -1.000000e+000
      outer loop
         vertex 3.455709e-001 1.697008e-001 3.765888e-002
         vertex 3.455709e-001 1.947008e-001 3.765888e-002
         vertex 3.514845e-001 1.691834e-001 3.765888e-002
      endloop
   endfacet
   facet normal 0.000000e+000 0.000000e+000 -1.000000e+000
      outer loop
         vertex 3.514845e-001 1.691834e-001 3.765888e-002
         vertex 3.455709e-001 1.947008e-001 3.765888e-002
         vertex 3.548091e-001 1.939737e-001 3.765888e-002
      endloop
   endfacet
   facet normal 0.000000e+000 0.000000e+000 -1.000000e+000
      outer loop
         vertex 3.514845e-001 1.691834e-001 3.765888e-002
         vertex 3.548091e-001 1.939737e-001 3.765888e-002
         vertex 3.572184e-001 1.676470e-001 3.765888e-002
      endloop
   endfacet
   facet normal 0.000000e+000 0.000000e+000 -1.000000e+000
      outer loop
         vertex 3.572184e-001 1.676470e-001 3.765888e-002
         vertex 3.548091e-001 1.939737e-001 3.765888e-002
         vertex 3.638199e-001 1.918104e-001 3.765888e-002
      endloop
   endfacet
   facet normal 0.000000e+000 0.000000e+000 -1.000000e+000
      outer loop
         vertex 3.572184e-001 1.676470e-001 3.765888e-002
         vertex 3.638199e-001 1.918104e-001 3.765888e-002
         vertex 3.625984e-001 1.651382e-001 3.765888e-002
      endloop
   endfacet
   facet normal 0.000000e+000 0.000000e+000 -1.000000e+000
      outer loop
         vertex 3.625984e-001 1.651382e-001 3.765888e-002
         vertex 3.638199e-001 1.918104e-001 3.765888e-002
         vertex 3.723813e-001 1.882642e-001 3.765888e-002
      endloop
   endfacet
   facet normal 0.000000e+000 0.000000e+000 -1.000000e+000
      outer loop
         vertex 3.625984e-001 1.651382e-001 3.765888e-002
         vertex 3.723813e-001 1.882642e-001 3.765888e-002
         vertex 3.674611e-001 1.617334e-001 3.765888e-002
      endloop
   endfacet
   facet normal 0.000000e+000 0.000000e+000 -1.000000e+000
      outer loop
         vertex 3.674611e-001 1.617334e-001 3.765888e-002
         vertex 3.723813e-001 1.882642e-001 3.765888e-002
         vertex 3.802826e-001 1.834223e-001 3.765888e-002
      endloop
   endfacet
   facet normal 0.000000e+000 0.000000e+000 -1.000000e+000
      outer loop
         vertex 3.674611e-001 1.617334e-001 3.765888e-002
         vertex 3.802826e-001 1.834223e-001 3.765888e-002
         vertex 3.873291e-001 1.774039e-001 3.765888e-002
      endloop
   endfacet
   facet normal -7.071068e-001 -7.071068e-001 0.000000e+000
      outer loop
         vertex 1.023621e-002 1.697008e-001 6.265888e-002
         vertex 2.362210e-003 1.775748e-001 5.478486e-002
         vertex 1.023621e-002 1.697008e-001 3.765888e-002
      endloop
   endfacet
   facet normal -7.071068e-001 -7.071068e-001 0.000000e+000
      outer loop
         vertex 1.023621e-002 1.697008e-001 3.765888e-002
         vertex 2.362210e-003 1.775748e-001 5.478486e-002
         vertex 2.362210e-003 1.775748e-001 4.553290e-002
      endloop
   endfacet
   facet normal -7.071068e-001 -1.731912e-016 7.071068e-001
      outer loop
         vertex 1.023621e-002 1.947008e-001 6.265888e-002
         vertex 2.362210e-003 1.868268e-001 5.478486e-002
         vertex 1.023621e-002 1.697008e-001 6.265888e-002
      endloop
   endfacet
   facet normal -7.071068e-001 -1.731912e-016 7.071068e-001
      outer loop
         vertex 1.023621e-002 1.697008e-001 6.265888e-002
         vertex 2.362210e-003 1.868268e-001 5.478486e-002
         vertex 2.362210e-003 1.775748e-001 5.478486e-002
      endloop
   endfacet
   facet normal -7.071068e-001 -1.731912e-016 -7.071068e-001
      outer loop
         vertex 2.362210e-003 1.868268e-001 4.553290e-002
         vertex 1.023621e-002 1.947008e-001 3.765888e-002
         vertex 2.362210e-003 1.775748e-001 4.553290e-002
      endloop
   endfacet
   facet normal -7.071068e-001 -1.731912e-016 -7.071068e-001
      outer loop
         vertex 2.362210e-003 1.775748e-001 4.553290e-002
         vertex 1.023621e-002 1.947008e-001 3.765888e-002
         vertex 1.023621e-002 1.697008e-001 3.765888e-002
      endloop
   endfacet
   facet normal -7.071068e-001 7.071068e-001 0.000000e+000
      outer loop
         vertex 1.023621e-002 1.947008e-001 3.765888e-002
         vertex 2.362210e-003 1.868268e-001 4.553290e-002
         vertex 1.023621e-002 1.947008e-001 6.265888e-002
      endloop
   endfacet
   facet normal -7.071068e-001 7.071068e-001 0.000000e+000
      outer loop
         vertex 1.023621e-002 1.947008e-001 6.265888e-002
         vertex 2.362210e-003 1.868268e-001 4.553290e-002
         vertex 2.362210e-003 1.868268e-001 5.478486e-002
      endloop
   endfacet
   facet normal 7.071068e-001 -7.071068e-001 0.000000e+000
      outer loop
         vertex 4.046260e-001 1.017322e-002 6.265888e-002
         vertex 3.967520e-001 2.299195e-003 5.478486e-002
         vertex 4.046260e-001 1.017322e-002 3.765888e-002
      endloop
   endfacet
   facet normal 7.071068e-001 -7.071068e-001 0.000000e+000
      outer loop
         vertex 4.046260e-001 1.017322e-002 3.765888e-002
         vertex 3.967520e-001 2.299195e-003 5.478486e-002
         vertex 3.967520e-001 2.299195e-003 4.553290e-002
      endloop
   endfacet
   facet normal 1.731912e-016 -7.071068e-001 7.071068e-001
      outer loop
         vertex 3.796260e-001 1.017322e-002 6.265888e-002
         vertex 3.875000e-001 2.299195e-003 5.478486e-002
         vertex 4.046260e-001 1.017322e-002 6.265888e-002
      endloop
   endfacet
   facet normal 1.731912e-016 -7.071068e-001 7.071068e-001
      outer loop
         vertex 4.046260e-001 1.017322e-002 6.265888e-002
         vertex 3.875000e-001 2.299195e-003 5.478486e-002
         vertex 3.967520e-001 2.299195e-003 5.478486e-002
      endloop
   endfacet
   facet normal 1.731912e-016 -7.071068e-001 -7.071068e-001
      outer loop
         vertex 3.875000e-001 2.299195e-003 4.553290e-002
         vertex 3.796260e-001 1.017322e-002 3.765888e-002
         vertex 3.967520e-001 2.299195e-003 4.553290e-002
      endloop
   endfacet
   facet normal 1.731912e-016 -7.071068e-001 -7.071068e-001
      outer loop
         vertex 3.967520e-001 2.299195e-003 4.553290e-002
         vertex 3.796260e-001 1.017322e-002 3.765888e-002
         vertex 4.046260e-001 1.017322e-002 3.765888e-002
      endloop
   endfacet
   facet normal -7.071068e-001 -7.071068e-001 0.000000e+000
      outer loop
         vertex 3.796260e-001 1.017322e-002 3.765888e-002
         vertex 3.875000e-001 2.299195e-003 4.553290e-002
         vertex 3.796260e-001 1.017322e-002 6.265888e-002
      endloop
   endfacet
   facet normal -7.071068e-001 -7.071068e-001 0.000000e+000
      outer loop
         vertex 3.796260e-001 1.017322e-002 6.265888e-002
         vertex 3.875000e-001 2.299195e-003 4.553290e-002
         vertex 3.875000e-001 2.299195e-003 5.478486e-002
      endloop
   endfacet
endsolid